<svg xmlns="http://www.w3.org/2000/svg" viewBox="0 0 40.98 40.98"><defs><style>.cls-1{fill:#ff0b0b;}.cls-2{fill:#f9fafc;}</style></defs><g id="Слой_2" data-name="Слой 2"><g id="Слой_1-2" data-name="Слой 1"><path class="cls-1" d="M41,20.49a20.5,20.5,0,0,1-15.93,20,18.62,18.62,0,0,1-2,.35,20.67,20.67,0,0,1-7.13-.35,20.49,20.49,0,1,1,25-20Z"/><path class="cls-2" d="M11,27.69l.69,2.58a31.21,31.21,0,0,1,18,0l.58-2.41A30.1,30.1,0,0,0,11,27.69Z"/><path class="cls-2" d="M11.84,24.56a10.12,10.12,0,0,1,3.69-3.89l.1-.07a11.87,11.87,0,0,1,1.61-.87l.11,0a7.79,7.79,0,0,1,3.85-.64h0l.35,0h0l.18,0h.48c1.36,0,4.07-.22,5.26-1.87h0s2.05,3.92-1.79,8l2.46.55s5.17-6.13-.79-12.74c0,0-1.35,4.36-5.41,3.71,0,0,5.6-6.36-3.59-12.45,0,0,1.78,8.77-7.54,13.51,0,0-.59,4,1,6.71Z"/><path class="cls-2" d="M12.35,32.3v.15L13.5,37s.59,1.79,2.2,1.85l.24,1.66a20.08,20.08,0,0,0,4.55.51V33.11a28.25,28.25,0,0,1,5.85.6l-.68,2.67c-.09.2-.3.52-.45.52L23.62,37l-.22,1.58-.33,2.28a18.62,18.62,0,0,0,2-.35l.24-1.66c1.6-.06,2.19-1.85,2.19-1.85l1.15-4.51V32.3a30.67,30.67,0,0,0-16.28,0Z"/></g></g></svg>