<svg xmlns="http://www.w3.org/2000/svg" viewBox="0 0 193.84 40.98"><defs><style>.cls-1{fill:#28292b;}.cls-2{fill:#ff0b0b;}.cls-3{fill:#f9fafc;}</style></defs><g id="Слой_2" data-name="Слой 2"><g id="Слой_1-2" data-name="Слой 1"><path class="cls-1" d="M65.85,10.63c6.6,0,11,4.73,11,11.42v2.2H59.75a6.11,6.11,0,0,0,6.42,6,6.36,6.36,0,0,0,6-3.71l4.18,2.38a11.22,11.22,0,0,1-10.14,5.69c-6.88,0-11.74-5.23-11.74-12.15C54.52,15.68,59.25,10.63,65.85,10.63Zm5.82,9.86A5.47,5.47,0,0,0,65.8,15c-3.57,0-5.64,2.11-6,5.5Z"/><path class="cls-1" d="M86,11.32V15h.64C87.63,12.93,89.7,11,94,11c4.9,0,8.8,3.35,8.8,9.4V33.93h-5V20.81c0-3.53-2-5.45-5.46-5.45-3.94,0-6.24,2.47-6.24,6.83V33.93H81V11.32Z"/><path class="cls-1" d="M130.46,33.93h-5v-3.4h-.64c-1.19,2-3.26,4-7.48,4-5.77,0-10.5-5-10.5-12s4.73-11.92,10.5-11.92c4.22,0,6.29,2,7.48,4h.55V1.83h5ZM111.94,22.6c0,4.77,2.89,7.48,6.78,7.48s6.7-2.85,6.7-7.48-2.71-7.43-6.7-7.43S111.94,17.83,111.94,22.6Z"/><path class="cls-1" d="M146.15,10.63c6.6,0,11,4.73,11,11.42v2.2h-17.1a6.11,6.11,0,0,0,6.42,6,6.38,6.38,0,0,0,6.05-3.71l4.17,2.38a11.21,11.21,0,0,1-10.13,5.69c-6.88,0-11.74-5.23-11.74-12.15C134.82,15.68,139.54,10.63,146.15,10.63ZM152,20.49A5.47,5.47,0,0,0,146.1,15c-3.58,0-5.64,2.11-6,5.5Z"/><path class="cls-1" d="M166.28,11.32v3.16h.64a6.94,6.94,0,0,1,12.24.28h.64A6.59,6.59,0,0,1,186.27,11a7.4,7.4,0,0,1,7.57,7.66V33.93h-5.05V19c0-2.34-1.74-3.67-4.17-3.67s-4.49,1.56-4.49,4.68V33.93h-5V19c0-2.34-1.65-3.67-4.08-3.67A4.32,4.32,0,0,0,166.37,20V33.93h-5.05V11.32Z"/><path class="cls-2" d="M41,20.49a20.5,20.5,0,0,1-15.93,20,18.62,18.62,0,0,1-2,.35,20.67,20.67,0,0,1-7.13-.35,20.49,20.49,0,1,1,25-20Z"/><path class="cls-3" d="M11,27.69l.69,2.58a31.21,31.21,0,0,1,18,0l.58-2.41A30.1,30.1,0,0,0,11,27.69Z"/><path class="cls-3" d="M11.84,24.56a10.12,10.12,0,0,1,3.69-3.89l.1-.07a11.87,11.87,0,0,1,1.61-.87l.11,0a7.79,7.79,0,0,1,3.85-.64h0l.35,0h0l.18,0h.48c1.36,0,4.07-.22,5.26-1.87h0s2.05,3.92-1.79,8l2.46.55s5.17-6.13-.79-12.74c0,0-1.35,4.36-5.41,3.71,0,0,5.6-6.36-3.59-12.45,0,0,1.78,8.77-7.54,13.51,0,0-.59,4,1,6.71Z"/><path class="cls-3" d="M12.35,32.3v.15L13.5,37s.59,1.79,2.2,1.85l.24,1.66a20.08,20.08,0,0,0,4.55.51V33.11a28.25,28.25,0,0,1,5.85.6l-.68,2.67c-.09.2-.3.52-.45.52L23.62,37l-.22,1.58-.33,2.28a18.62,18.62,0,0,0,2-.35l.24-1.66c1.6-.06,2.19-1.85,2.19-1.85l1.15-4.51V32.3a30.67,30.67,0,0,0-16.28,0Z"/></g></g></svg>