<svg xmlns="http://www.w3.org/2000/svg" viewBox="0 0 139.31 32.74"><defs><style>.cls-1{fill:#28292b;}</style></defs><g id="Слой_2" data-name="Слой 2"><g id="Слой_1-2" data-name="Слой 1"><path class="cls-1" d="M11.33,8.8c6.6,0,11,4.73,11,11.42v2.2H5.23a6.12,6.12,0,0,0,6.42,6,6.39,6.39,0,0,0,6-3.72l4.17,2.39a11.22,11.22,0,0,1-10.13,5.68C4.86,32.74,0,27.51,0,20.59,0,13.85,4.72,8.8,11.33,8.8Zm5.82,9.86a5.47,5.47,0,0,0-5.87-5.5c-3.58,0-5.64,2.11-6,5.5Z"/><path class="cls-1" d="M31.46,9.49v3.72h.64c1-2.11,3.07-4.08,7.38-4.08,4.91,0,8.81,3.34,8.81,9.4V32.1h-5V19c0-3.53-2-5.45-5.45-5.45-3.95,0-6.24,2.47-6.24,6.83V32.1h-5V9.49Z"/><path class="cls-1" d="M75.94,32.1H71V28.71h-.65c-1.19,2-3.25,4-7.47,4-5.78,0-10.5-5-10.5-12S57.09,8.85,62.87,8.85c4.22,0,6.28,2,7.47,4h.55V0h5ZM57.41,20.77c0,4.77,2.89,7.48,6.79,7.48s6.69-2.85,6.69-7.48-2.7-7.43-6.69-7.43S57.41,16,57.41,20.77Z"/><path class="cls-1" d="M91.62,8.8c6.61,0,11,4.73,11,11.42v2.2H85.52a6.12,6.12,0,0,0,6.42,6A6.39,6.39,0,0,0,98,24.67l4.17,2.39A11.23,11.23,0,0,1,92,32.74c-6.87,0-11.73-5.23-11.73-12.15C80.3,13.85,85,8.8,91.62,8.8Zm5.83,9.86a5.47,5.47,0,0,0-5.87-5.5c-3.58,0-5.64,2.11-6.06,5.5Z"/><path class="cls-1" d="M111.75,9.49v3.17h.64a7,7,0,0,1,12.25.27h.64c1-2,2.84-3.8,6.47-3.8a7.39,7.39,0,0,1,7.56,7.65V32.1h-5v-15c0-2.34-1.74-3.67-4.17-3.67s-4.5,1.56-4.5,4.68V32.1h-5v-15c0-2.34-1.65-3.67-4.08-3.67a4.32,4.32,0,0,0-4.64,4.68V32.1h-5V9.49Z"/></g></g></svg>