<svg width="19" height="16" viewBox="0 0 19 16" fill="none" xmlns="http://www.w3.org/2000/svg">
<path d="M1.00001 7.02513C0.44773 7.02513 1.49643e-05 7.47285 1.52593e-05 8.02513C1.48378e-05 8.57742 0.44773 9.02513 1.00002 9.02513L1.00001 7.02513ZM17.0503 8.02513L17.7574 8.73224C18.1479 8.34171 18.1479 7.70855 17.7574 7.31802L17.0503 8.02513ZM11.0425 0.603119C10.652 0.212594 10.0188 0.212594 9.62827 0.603119C9.23774 0.993643 9.23774 1.62681 9.62827 2.01733L11.0425 0.603119ZM9.62826 14.0329C9.23774 14.4235 9.23774 15.0566 9.62826 15.4471C10.0188 15.8377 10.652 15.8377 11.0425 15.4471L9.62826 14.0329ZM1.00002 9.02513H17.0503L17.0503 7.02513H1.00001L1.00002 9.02513ZM17.7574 7.31802L11.0425 0.603119L9.62827 2.01733L16.3432 8.73224L17.7574 7.31802ZM16.3432 7.31802L9.62826 14.0329L11.0425 15.4471L17.7574 8.73224L16.3432 7.31802Z" fill="white"/>
</svg>
