<svg width="920" height="636" viewBox="0 0 920 636" fill="none" xmlns="http://www.w3.org/2000/svg">
<path fill-rule="evenodd" clip-rule="evenodd" d="M102.46 89.0011L102.483 89.4059L102.549 89.8122L102.661 90.2213L102.817 90.6347L103.017 91.0537L103.263 91.4799L103.553 91.9146L103.889 92.3594L104.269 92.8157L104.694 93.2849L105.164 93.7685L105.679 94.268L106.238 94.7847L106.84 95.3202L107.486 95.8757L108.172 96.4525L108.899 97.0518L109.664 97.6746L110.464 98.3219L111.297 98.9943L112.159 99.6923L113.046 100.416L113.952 101.166L114.872 101.94L115.798 102.738L116.723 103.559L117.638 104.4L118.534 105.258L119.4 106.13L120.226 107.013L120.999 107.901L121.709 108.788L122.342 109.67L122.888 110.54L123.336 111.391L123.675 112.216L123.897 113.009L123.996 113.763L123.965 114.472L123.802 115.131L123.508 115.735L123.082 116.279L122.531 116.762L121.86 117.182L121.077 117.539L120.192 117.833L119.217 118.066L118.164 118.241L117.045 118.362L115.873 118.432L114.66 118.457L113.418 118.442L112.16 118.391L110.895 118.31L109.632 118.205L108.381 118.08L107.149 117.941L105.943 117.792L104.767 117.637L103.626 117.48L102.525 117.325L101.465 117.176L100.449 117.035L99.4782 116.906L98.5542 116.79L97.6774 116.691L96.8481 116.61L96.0663 116.55L95.3318 116.512L94.6443 116.498L94.0032 116.509L93.408 116.549L92.8581 116.617L92.353 116.717L91.8921 116.849L91.4749 117.016L91.1011 117.22L90.7703 117.463L90.4825 117.748L90.2363 118.075L90.0293 118.445L89.8593 118.859L89.7243 119.316L89.6222 119.818L89.5512 120.364L89.5097 120.956L89.4958 121.593L89.5079 122.277L89.5442 123.008L89.6029 123.786L89.6822 124.611L89.7801 125.484L89.8944 126.405L90.0228 127.372L90.1627 128.384L90.3113 129.441L90.4657 130.539L90.6224 131.677L90.7777 132.85L90.9277 134.054L91.0681 135.284L91.1942 136.534L91.3012 137.796L91.3839 139.061L91.4372 140.321L91.4558 141.564L91.4342 142.779L91.3676 143.955L91.2511 145.079L91.0804 146.138L90.852 147.12L90.5629 148.012L90.2113 148.803L89.7964 149.484L89.3183 150.045L88.7785 150.48L88.1796 150.786L87.5252 150.959L86.8199 151L86.0691 150.912L85.279 150.699L84.4559 150.369L83.6068 149.93L82.7384 149.391L81.8572 148.764L80.9697 148.06L80.0818 147.292L79.1988 146.47L78.3254 145.606L77.4659 144.712L76.6235 143.798L75.8012 142.874L75.0011 141.947L74.2248 141.027L73.4734 140.119L72.7475 139.231L72.0475 138.367L71.373 137.531L70.7238 136.728L70.099 135.96L69.4979 135.231L68.9194 134.541L68.3622 133.892L67.8252 133.286L67.3071 132.724L66.8063 132.206L66.3214 131.732L65.8511 131.303L65.3939 130.919L64.9483 130.58L64.5128 130.286L64.086 130.037L63.6664 129.833L63.2527 129.673L62.8433 129.558L62.4369 129.488L62.032 129.462L61.6272 129.481L61.2211 129.544L60.8123 129.652L60.3993 129.804L59.9808 130.002L59.5552 130.243L59.1212 130.53L58.6773 130.862L58.222 131.239L57.7539 131.661L57.2715 132.127L56.7733 132.638L56.258 133.194L55.7241 133.793L55.1702 134.435L54.5952 135.118L53.9977 135.842L53.3768 136.603L52.7315 137.401L52.0611 138.232L51.3651 139.092L50.6434 139.976L49.8961 140.881L49.1237 141.8L48.3272 142.726L47.5083 143.651L46.669 144.568L45.8119 145.466L44.9405 146.335L44.0588 147.164L43.1713 147.942L42.2833 148.657L41.4008 149.297L40.5298 149.85L39.6772 150.306L38.8495 150.654L38.0537 150.886L37.2963 150.995L36.5833 150.974L35.9205 150.822L35.3125 150.538L34.7631 150.123L34.275 149.581L33.85 148.919L33.4883 148.145L33.1894 147.268L32.9515 146.3L32.7718 145.253L32.647 144.138L32.5727 142.97L32.5443 141.76L32.5568 140.52L32.6049 139.262L32.6834 137.997L32.7868 136.734L32.9102 135.482L33.0486 134.249L33.1974 133.04L33.3522 131.861L33.5089 130.718L33.6638 129.613L33.8136 128.549L33.9551 127.53L34.0855 126.556L34.2022 125.628L34.3029 124.747L34.3853 123.914L34.4474 123.129L34.4874 122.39L34.5034 121.699L34.4938 121.054L34.4568 120.455L34.3906 119.902L34.2936 119.393L34.1639 118.929L33.9996 118.508L33.7987 118.131L33.5589 117.797L33.2778 117.506L32.9539 117.256L32.587 117.046L32.1767 116.873L31.7228 116.735L31.2248 116.631L30.6821 116.557L30.0942 116.514L29.4604 116.498L28.7803 116.508L28.0533 116.542L27.2791 116.599L26.4573 116.677L25.5881 116.773L24.6715 116.886L23.7083 117.014L22.6994 117.153L21.6463 117.301L20.5511 117.455L19.4165 117.612L18.246 117.767L17.044 117.918L15.8157 118.059L14.5674 118.186L13.3064 118.295L12.041 118.38L10.7807 118.436L9.53581 118.457L8.31757 118.439L7.13797 118.376L6.0095 118.264L4.94484 118.098L3.95661 117.874L3.05698 117.59L2.25729 117.243L1.56767 116.833L0.996686 116.36L0.551028 115.825L0.23525 115.231L0.051611 114.581L0 113.879L0.0779671 113.132L0.280848 112.345L0.601977 111.524L1.03296 110.677L1.56403 109.81L2.18435 108.929L2.88242 108.042L3.64643 107.154L4.46452 106.27L5.32509 105.396L6.21705 104.535L7.12993 103.691L8.05407 102.867L8.98065 102.065L9.90177 101.287L10.8104 100.534L11.7005 99.8059L12.5668 99.1038L13.4047 98.4273L14.2105 97.776L14.9812 97.1494L15.7141 96.5464L16.4073 95.9661L17.0592 95.4073L17.6685 94.8687L18.2343 94.3491L18.7561 93.847L19.2334 93.3609L19.6658 92.8895L20.0533 92.4313L20.3958 91.9848L20.6934 91.5485L20.946 91.1211L21.1539 90.701L21.317 90.2868L21.4354 89.8771L21.5093 89.4705L21.5386 89.0655L21.5235 88.6608L21.4638 88.2549L21.3595 87.8463L21.2107 87.4337L21.0171 87.0157L20.7787 86.5907L20.4955 86.1574L20.1673 85.7144L19.7941 85.26L19.376 84.793L18.913 84.3117L18.4054 83.8149L17.8535 83.301L17.2579 82.7686L16.6195 82.2164L15.9393 81.6431L15.2188 81.0474L14.46 80.4284L13.665 79.7851L12.8369 79.1167L11.9793 78.4228L11.0962 77.7031L10.1929 76.9577L9.275 76.1873L8.34934 75.3927L7.42351 74.5755L6.50604 73.7377L5.60632 72.882L4.73457 72.0115L3.90171 71.1304L3.1192 70.2432L2.39883 69.3551L1.75247 68.4718L1.19176 67.5997L0.727778 66.7454L0.370672 65.9155L0.129314 65.1169L0.010951 64.3561L0.0209124 63.6394L0.162371 62.9724L0.436191 62.3599L0.840866 61.8057L1.37256 61.3127L2.02524 60.8826L2.7909 60.5159L3.65988 60.212L4.62117 59.9693L5.66284 59.7851L6.77237 59.656L7.93705 59.5779L9.14431 59.5461L10.382 59.5555L11.6386 59.601L12.9034 59.6772L14.1667 59.7788L15.4199 59.9008L16.6553 60.0382L17.8663 60.1863L19.0474 60.3408L20.1938 60.4975L21.3019 60.6527L22.3687 60.803L23.3919 60.9453L24.3698 61.0767L25.3012 61.1945L26.1856 61.2965L27.0225 61.3805L27.8118 61.4443L28.5538 61.4861L29.2488 61.5041L29.8973 61.4966L30.4998 61.4618L31.0568 61.3981L31.569 61.3036L32.0369 61.1765L32.461 61.0151L32.8417 60.8172L33.1793 60.5805L33.474 60.3028L33.7266 59.9823L33.9397 59.6188L34.1154 59.212L34.2559 58.7616L34.3631 58.2671L34.4389 57.728L34.4851 57.1437L34.5032 56.5136L34.4952 55.8372L34.4626 55.1139L34.4073 54.3434L34.3312 53.5255L34.2361 52.66L34.1243 51.7472L33.998 50.7877L33.8597 49.7824L33.7123 48.7327L33.5586 47.6407L33.4021 46.5091L33.2462 45.3413L33.0951 44.1416L32.9529 42.9152L32.8242 41.6682L32.7138 40.4079L32.6269 39.1426L32.5685 37.8815L32.5441 36.6349L32.5589 35.4141L32.618 34.231L32.7263 33.0979L32.8881 32.0277L33.1071 31.0329L33.3864 30.1258L33.7279 29.3178L34.1328 28.619L34.6009 28.0383L35.131 27.5825L35.7207 27.2563L36.3665 27.0621L37.0641 27L37.808 27.0678L38.5923 27.2609L39.4105 27.573L40.2559 27.9955L41.1218 28.519L42.0013 29.1327L42.8882 29.825L43.7764 30.5842L44.6606 31.3984L45.5357 32.256L46.3978 33.1459L47.2431 34.0575L48.0688 34.981L48.8725 35.9077L49.6527 36.8296L50.4081 37.7395L51.138 38.6313L51.8422 39.4996L52.5207 40.3399L53.174 41.1484L53.8025 41.922L54.4074 42.658L54.9894 43.3545L55.5499 44.0097L56.09 44.6224L56.6111 45.1918L57.1146 45.7171L57.6018 46.1979L58.0743 46.6339L58.5336 47.025L58.9809 47.3711L59.4179 47.6723L59.846 47.9285L60.2666 48.1399L60.6812 48.3065L61.0912 48.4285L61.498 48.506L61.9031 48.5388L62.3078 48.5272L62.7136 48.4711L63.1219 48.3704L63.5341 48.2251L63.9516 48.0351L64.376 47.8003L64.8085 47.5206L65.2508 47.196L65.7041 46.8264L66.1701 46.4118L66.6502 45.9524L67.1457 45.4483L67.6582 44.8999L68.1891 44.3078L68.7396 43.6727L69.3112 42.9958L69.905 42.2785L70.5221 41.5226L71.1635 40.7304L71.8299 39.9048L72.5218 39.0494L73.2394 38.1682L73.9827 37.2662L74.7511 36.3493L75.5438 35.4239L76.3593 34.4978L77.1955 33.5793L78.05 32.6778L78.9193 31.8034L79.7998 30.9671L80.6867 30.1801L81.5749 29.4543L82.4588 28.8017L83.332 28.2337L84.188 27.7616L85.0201 27.3957L85.8214 27.1448L86.5854 27.0164L87.3058 27.016L87.977 27.1469L88.594 27.4102L89.1529 27.8046L89.6509 28.3264L90.086 28.9697L90.4578 29.7267L90.7666 30.5879L91.0141 31.5422L91.2028 32.578L91.3361 33.6826L91.4181 34.8434L91.4535 36.0477L91.4472 37.2834L91.4044 38.5389L91.3304 39.8034L91.2306 41.0672L91.11 42.3216L90.9737 43.5586L90.8263 44.7718L90.6722 45.9554L90.5155 47.1048L90.36 48.2161L90.2092 49.2863L90.0662 50.313L89.9339 51.2945L89.8148 52.2297L89.7115 53.1179L89.626 53.9585L89.5605 54.7517L89.5169 55.4975L89.4969 56.1962L89.5023 56.8484L89.5349 57.4545L89.5963 58.0151L89.6883 58.5309L89.8126 59.0023L89.9713 59.4299L90.1662 59.814L90.3997 60.1551L90.674 60.4531L90.9911 60.7091L91.3512 60.9252L91.7545 61.1038L92.2014 61.247L92.6924 61.3568L93.2279 61.4351L93.8086 61.4835L94.435 61.5038L95.1077 61.4978L95.8272 61.4671L96.5939 61.4136L97.4081 61.339L98.2698 61.2454L99.1788 61.1348L100.135 61.0096L101.136 60.8722L102.183 60.7253L103.271 60.572L104.4 60.4156L105.565 60.2596L106.762 60.1079L107.987 59.9649L109.232 59.8349L110.492 59.7229L111.757 59.6339L113.019 59.573L114.267 59.5457L115.49 59.5572L116.677 59.6126L117.814 59.7168L118.89 59.8742L119.891 60.0886L120.806 60.3629L121.622 60.6995L122.33 61.0993L122.92 61.5624L123.386 62.0876L123.723 62.6727L123.927 63.3142L124 64.0078L123.942 64.7483L123.759 65.5296L123.456 66.3454L123.042 67.1889L122.526 68.0534L121.919 68.9321L121.233 69.8186L120.479 70.707L119.668 71.5916L118.814 72.4677L117.926 73.3309L117.016 74.1776L116.093 75.005L115.166 75.8106L114.244 76.5927L113.333 77.3501L112.439 78.0821L111.569 78.7883L110.726 79.4689L109.915 80.1241L109.139 80.7546L108.399 81.3613L107.7 81.9452L107.041 82.5073L106.425 83.049L105.852 83.5716L105.323 84.0764L104.839 84.5649L104.4 85.0385L104.005 85.4988L103.655 85.947L103.35 86.3848L103.091 86.8136L102.876 87.2347L102.705 87.6498L102.58 88.0601L102.499 88.4671L102.463 88.8722L102.46 89.0011Z" fill="#161723"/>
<path fill-rule="evenodd" clip-rule="evenodd" d="M268.528 38.5005L268.539 38.8109L268.571 39.122L268.625 39.4345L268.701 39.7491L268.798 40.0666L268.916 40.3876L269.054 40.7128L269.213 41.0429L269.392 41.3784L269.589 41.72L269.806 42.0683L270.039 42.4239L270.29 42.7872L270.556 43.1586L270.836 43.5386L271.13 43.9275L271.435 44.3254L271.749 44.7326L272.071 45.149L272.399 45.5746L272.73 46.0092L273.061 46.4523L273.39 46.9036L273.714 47.3623L274.03 47.8277L274.334 48.2986L274.623 48.7741L274.893 49.2527L275.142 49.7329L275.365 50.2132L275.56 50.6917L275.723 51.1666L275.851 51.6361L275.941 52.098L275.991 52.5505L276 52.9915L275.965 53.4192L275.886 53.8318L275.762 54.2278L275.594 54.6057L275.381 54.9642L275.126 55.3025L274.829 55.6198L274.494 55.9157L274.122 56.1901L273.716 56.443L273.28 56.6749L272.817 56.8863L272.331 57.0781L271.824 57.2513L271.302 57.4072L270.767 57.5471L270.222 57.6724L269.672 57.7847L269.119 57.8855L268.566 57.9766L268.016 58.0594L267.471 58.1357L266.934 58.207L266.405 58.2749L265.889 58.3409L265.384 58.4064L264.894 58.4728L264.418 58.5415L263.959 58.6136L263.516 58.6903L263.089 58.7729L262.681 58.8622L262.29 58.9594L261.917 59.0653L261.561 59.1808L261.224 59.3068L260.904 59.4441L260.602 59.5933L260.317 59.7552L260.048 59.9305L259.797 60.1197L259.561 60.3234L259.341 60.5422L259.136 60.7766L258.946 61.027L258.769 61.2939L258.606 61.5777L258.456 61.8786L258.318 62.197L258.191 62.5331L258.075 62.8869L257.968 63.2587L257.87 63.6482L257.78 64.0555L257.697 64.4802L257.62 64.9221L257.548 65.3804L257.479 65.8547L257.412 66.3439L257.347 66.8472L257.281 67.3631L257.213 67.8904L257.142 68.4271L257.066 68.9715L256.984 69.5214L256.894 70.0742L256.794 70.6274L256.682 71.178L256.558 71.723L256.419 72.259L256.265 72.7826L256.093 73.2903L255.903 73.7784L255.693 74.2433L255.463 74.6815L255.212 75.0897L254.939 75.4645L254.645 75.803L254.329 76.1028L253.992 76.3615L253.635 76.5775L253.259 76.7496L252.865 76.877L252.453 76.9597L252.027 76.9979L251.587 76.9928L251.135 76.9456L250.674 76.8584L250.205 76.7334L249.73 76.5732L249.252 76.381L248.772 76.1598L248.291 75.9129L247.813 75.644L247.337 75.3563L246.865 75.0534L246.4 74.7386L245.94 74.4153L245.488 74.0865L245.045 73.7553L244.609 73.4245L244.183 73.0965L243.766 72.7738L243.358 72.4587L242.959 72.153L242.57 71.8586L242.189 71.577L241.817 71.3097L241.453 71.0579L241.097 70.8227L240.748 70.6051L240.406 70.4059L240.07 70.2258L239.739 70.0654L239.414 69.9253L239.092 69.8057L238.775 69.7072L238.46 69.6299L238.147 69.574L237.836 69.5397L237.525 69.5271L237.215 69.5363L236.904 69.5671L236.592 69.6195L236.277 69.6934L235.96 69.7886L235.639 69.9048L235.314 70.0418L234.985 70.199L234.65 70.3759L234.309 70.5722L233.961 70.7869L233.606 71.0193L233.243 71.2685L232.872 71.5334L232.493 71.8128L232.105 72.1053L231.708 72.4093L231.301 72.7231L230.886 73.0447L230.461 73.372L230.027 73.7025L229.584 74.0339L229.134 74.3632L228.676 74.6876L228.211 75.0039L227.74 75.309L227.265 75.5993L226.787 75.8715L226.306 76.1221L225.826 76.3476L225.347 76.5447L224.872 76.7101L224.402 76.8409L223.939 76.9344L223.486 76.988L223.044 77L222.615 76.9687L222.201 76.8932L221.804 76.7729L221.425 76.6079L221.065 76.3988L220.725 76.1468L220.406 75.8534L220.108 75.5209L219.832 75.1517L219.577 74.7486L219.344 74.315L219.131 73.8541L218.937 73.3694L218.763 72.8646L218.606 72.3433L218.464 71.809L218.338 71.2653L218.225 70.7153L218.123 70.1624L218.031 69.6093L217.948 69.0588L217.871 68.5134L217.799 67.9753L217.731 67.4464L217.665 66.9285L217.6 66.4232L217.533 65.9316L217.465 65.4549L217.393 64.994L217.317 64.5495L217.235 64.122L217.146 63.7119L217.05 63.3195L216.944 62.9449L216.83 62.5882L216.704 62.2493L216.568 61.9281L216.42 61.6244L216.259 61.338L216.085 61.0684L215.897 60.8154L215.694 60.5785L215.477 60.3572L215.244 60.1511L214.994 59.9596L214.729 59.7822L214.446 59.6182L214.147 59.467L213.83 59.3279L213.495 59.2002L213.143 59.083L212.772 58.9756L212.384 58.8771L211.978 58.7866L211.555 58.7031L211.115 58.6255L210.657 58.5527L210.184 58.4836L209.696 58.4169L209.194 58.3513L208.679 58.2855L208.153 58.218L207.617 58.1474L207.073 58.072L206.523 57.9903L205.971 57.9006L205.417 57.8015L204.866 57.6911L204.321 57.568L203.784 57.4305L203.259 57.2773L202.75 57.1069L202.26 56.9181L201.793 56.7099L201.353 56.4813L200.942 56.2318L200.565 55.9609L200.223 55.6684L199.92 55.3545L199.658 55.0195L199.439 54.6641L199.263 54.2892L199.132 53.8961L199.046 53.486L199.004 53.0605L199.006 52.6215L199.05 52.1707L199.134 51.7102L199.256 51.2418L199.413 50.7676L199.603 50.2895L199.822 49.8094L200.067 49.3291L200.335 48.8501L200.621 48.3741L200.923 47.9023L201.237 47.436L201.559 46.9762L201.888 46.5237L202.219 46.0792L202.55 45.6432L202.878 45.2162L203.201 44.7983L203.517 44.3896L203.824 43.9902L204.119 43.5999L204.402 43.2185L204.67 42.8458L204.923 42.4812L205.16 42.1245L205.379 41.775L205.58 41.4324L205.761 41.0959L205.923 40.765L206.065 40.4391L206.186 40.1175L206.286 39.7995L206.366 39.4844L206.423 39.1716L206.459 38.8603L206.473 38.5499L206.466 38.2396L206.437 37.9286L206.386 37.6164L206.314 37.3021L206.22 36.9851L206.106 36.6647L205.971 36.3402L205.815 36.011L205.64 35.6764L205.445 35.3358L205.232 34.9886L205.001 34.6342L204.753 34.2722L204.489 33.9021L204.211 33.5235L203.919 33.136L203.616 32.7396L203.303 32.3339L202.982 31.9189L202.655 31.4948L202.325 31.0616L201.993 30.6198L201.664 30.1697L201.339 29.7122L201.022 29.2478L200.715 28.7777L200.424 28.3028L200.15 27.8247L199.898 27.3446L199.67 26.8642L199.471 26.3853L199.302 25.9096L199.169 25.4392L199.072 24.9759L199.015 24.5219L199 24.0789L199.028 23.6489L199.1 23.2338L199.217 22.835L199.378 22.4542L199.584 22.0925L199.832 21.7509L200.122 21.4302L200.452 21.1309L200.818 20.8531L201.219 20.5968L201.65 20.3616L202.109 20.147L202.592 19.9522L203.095 19.776L203.615 19.6175L204.149 19.4751L204.692 19.3476L205.241 19.2334L205.794 19.1308L206.347 19.0383L206.898 18.9543L207.444 18.877L207.983 18.805L208.513 18.7367L209.031 18.6705L209.538 18.605L210.031 18.5388L210.508 18.4706L210.971 18.3991L211.417 18.3232L211.845 18.2417L212.257 18.1535L212.651 18.0576L213.027 17.9532L213.385 17.8392L213.725 17.7149L214.048 17.5795L214.353 17.4322L214.641 17.2724L214.912 17.0993L215.166 16.9124L215.404 16.711L215.627 16.4946L215.834 16.2628L216.027 16.0149L216.205 15.7507L216.37 15.4696L216.522 15.1714L216.662 14.8558L216.791 14.5226L216.909 14.1716L217.017 13.8027L217.116 13.4159L217.207 13.0115L217.291 12.5895L217.369 12.1504L217.443 11.6946L217.512 11.2228L217.579 10.7359L217.644 10.2348L217.71 9.72079L217.777 9.19526L217.848 8.65988L217.923 8.11655L218.004 7.56743L218.093 7.01489L218.191 6.46157L218.301 5.91033L218.423 5.36425L218.559 4.82658L218.711 4.30077L218.88 3.79033L219.067 3.29887L219.274 2.83L219.501 2.38728L219.748 1.97415L220.018 1.59383L220.308 1.24932L220.621 0.943236L220.954 0.677843L221.308 0.454934L221.681 0.275809L222.073 0.141245L222.482 0.0514714L222.906 0.00617168L223.344 0.00449322L223.794 0.0450737L224.254 0.12608L224.722 0.245255L225.195 0.399981L225.673 0.587335L226.153 0.80416L226.634 1.04713L227.113 1.31282L227.589 1.59775L228.061 1.89846L228.528 2.21156L228.989 2.53373L229.442 2.86182L229.887 3.19283L230.324 3.52394L230.751 3.85252L231.17 4.17617L231.579 4.49265L231.979 4.79997L232.37 5.0963L232.753 5.38003L233.126 5.6497L233.491 5.90404L233.849 6.14192L234.199 6.36238L234.542 6.56457L234.879 6.74775L235.21 6.91131L235.536 7.05473L235.858 7.17758L236.177 7.2795L236.492 7.36022L236.805 7.41951L237.116 7.45722L237.427 7.47326L237.737 7.46759L238.048 7.44023L238.36 7.39123L238.674 7.32073L238.991 7.22891L239.311 7.11602L239.635 6.98238L239.964 6.82838L240.298 6.6545L240.638 6.46131L240.985 6.24949L241.339 6.01981L241.7 5.7732L242.069 5.51071L242.447 5.23353L242.834 4.94303L243.23 4.64075L243.635 4.32841L244.049 4.00792L244.472 3.6814L244.905 3.35119L245.346 3.01979L245.795 2.68994L246.253 2.36455L246.716 2.04672L247.186 1.73967L247.661 1.44677L248.139 1.17146L248.619 0.917198L249.099 0.687458L249.578 0.485617L250.054 0.314921L250.525 0.178413L250.989 0.0788642L251.444 0.0187126L251.888 0L252.319 0.0243192L252.735 0.0927705L253.135 0.205929L253.518 0.363826L253.881 0.565946L254.224 0.811235L254.547 1.09813L254.848 1.42459L255.127 1.78815L255.385 2.18599L255.622 2.615L255.838 3.07181L256.035 3.55292L256.212 4.05474L256.372 4.57366L256.516 5.1061L256.644 5.64858L256.76 6.19775L256.863 6.75044L256.956 7.3037L257.041 7.85476L257.119 8.40114L257.191 8.94057L257.26 9.47103L257.326 9.99075L257.391 10.4982L257.457 10.992L257.525 11.4712L257.597 11.9347L257.672 12.3818L257.753 12.812L257.841 13.2249L257.936 13.6201L258.04 13.9976L258.153 14.3571L258.276 14.6988L258.411 15.0228L258.557 15.3293L258.716 15.6185L258.888 15.8907L259.074 16.1464L259.274 16.3858L259.489 16.6095L259.72 16.818L259.966 17.0118L260.229 17.1914L260.509 17.3575L260.806 17.5107L261.12 17.6517L261.452 17.7812L261.801 17.8999L262.169 18.0088L262.554 18.1087L262.957 18.2004L263.378 18.285L263.816 18.3635L264.27 18.437L264.741 18.5066L265.226 18.5735L265.726 18.6392L266.24 18.7049L266.764 18.772L267.299 18.8421L267.842 18.9166L268.39 18.9972L268.943 19.0854L269.496 19.183L270.048 19.2915L270.594 19.4125L271.133 19.5475L271.66 19.6982L272.171 19.8657L272.665 20.0515L273.135 20.2566L273.58 20.4818L273.996 20.728L274.379 20.9955L274.726 21.2845L275.036 21.5951L275.304 21.9267L275.531 22.2789L275.713 22.6508L275.852 23.0411L275.945 23.4486L275.994 23.8717L275.999 24.3087L275.962 24.7577L275.884 25.2168L275.767 25.6841L275.615 26.1575L275.431 26.6351L275.216 27.115L274.975 27.5954L274.711 28.0747L274.427 28.5513L274.128 29.0238L273.816 29.4911L273.494 29.952L273.166 30.4057L272.835 30.8515L272.504 31.2889L272.175 31.7174L271.851 32.1367L271.534 32.5469L271.226 32.9477L270.929 33.3395L270.644 33.7223L270.373 34.0964L270.117 34.4622L269.878 34.8202L269.656 35.1707L269.453 35.5144L269.268 35.8519L269.103 36.1836L268.958 36.5102L268.833 36.8325L268.73 37.151L268.647 37.4665L268.586 37.7796L268.547 38.0911L268.529 38.4016L268.528 38.5005Z" fill="#F31818"/>
<path fill-rule="evenodd" clip-rule="evenodd" d="M89.2186 230L89.2397 230.122L89.3021 230.246L89.4046 230.372L89.5465 230.502L89.7273 230.637L89.9469 230.778L90.2051 230.926L90.5023 231.082L90.8387 231.249L91.2146 231.426L91.6305 231.616L92.0866 231.819L92.5835 232.037L93.121 232.272L93.6992 232.524L94.3178 232.795L94.9758 233.085L95.6722 233.398L96.405 233.732L97.1719 234.089L97.9697 234.469L98.7941 234.873L99.6404 235.301L100.502 235.751L101.373 236.223L102.245 236.715L103.108 237.225L103.954 237.75L104.771 238.287L105.547 238.83L106.272 239.376L106.934 239.919L107.521 240.454L108.022 240.973L108.429 241.472L108.731 241.943L108.923 242.381L109 242.781L108.959 243.136L108.8 243.444L108.524 243.701L108.136 243.904L107.643 244.053L107.052 244.147L106.373 244.188L105.617 244.178L104.795 244.119L103.92 244.014L103.004 243.87L102.059 243.689L101.095 243.477L100.124 243.239L99.1546 242.98L98.196 242.705L97.2556 242.418L96.3395 242.124L95.453 241.827L94.6003 241.531L93.7846 241.238L93.0081 240.951L92.2726 240.674L91.5788 240.407L90.9272 240.154L90.3176 239.915L89.7495 239.692L89.2223 239.485L88.7349 239.296L88.2863 239.126L87.8753 238.975L87.5007 238.844L87.1613 238.733L86.856 238.644L86.5837 238.576L86.3435 238.531L86.1347 238.509L85.9566 238.512L85.8088 238.541L85.6911 238.597L85.6035 238.682L85.5451 238.797L85.5142 238.943L85.5092 239.119L85.5289 239.325L85.5723 239.563L85.6382 239.832L85.7261 240.135L85.8352 240.472L85.9647 240.843L86.1142 241.251L86.283 241.697L86.4703 242.181L86.6754 242.705L86.8973 243.27L87.1351 243.876L87.3875 244.524L87.6529 245.215L87.9295 245.947L88.2154 246.72L88.5079 247.533L88.8044 248.383L89.1016 249.267L89.3959 250.181L89.6833 251.119L89.9596 252.077L90.2201 253.045L90.4599 254.017L90.6741 254.981L90.8575 255.929L91.0053 256.848L91.1127 257.726L91.1756 258.553L91.1901 259.314L91.1535 260L91.0634 260.598L90.9189 261.1L90.7199 261.496L90.4674 261.781L90.1636 261.95L89.8116 262L89.4155 261.932L88.9803 261.749L88.5114 261.455L88.0147 261.057L87.4966 260.563L86.9632 259.982L86.4206 259.326L85.8746 258.606L85.3307 257.833L84.7936 257.019L84.2675 256.176L83.7562 255.313L83.2625 254.442L82.7888 253.571L82.3367 252.708L81.9073 251.86L81.5014 251.033L81.119 250.233L80.7601 249.464L80.4241 248.728L80.1103 248.029L79.8177 247.368L79.5453 246.746L79.2918 246.165L79.056 245.624L78.8366 245.124L78.6322 244.664L78.4415 244.245L78.2632 243.866L78.096 243.527L77.9387 243.227L77.7899 242.965L77.6485 242.743L77.5133 242.559L77.3831 242.414L77.2567 242.308L77.1329 242.242L77.0104 242.218L76.8881 242.236L76.7646 242.295L76.6386 242.394L76.5091 242.533L76.3748 242.711L76.2345 242.927L76.087 243.182L75.9311 243.476L75.7655 243.81L75.5891 244.182L75.4005 244.595L75.1984 245.048L74.9814 245.541L74.7483 246.076L74.4977 246.651L74.2284 247.266L73.9391 247.921L73.6287 248.614L73.2963 249.344L72.9411 250.109L72.5625 250.904L72.1603 251.727L71.7347 252.571L71.2861 253.432L70.8157 254.303L70.325 255.175L69.8164 256.039L69.2925 256.886L68.7569 257.706L68.2137 258.486L67.6677 259.216L67.1242 259.883L66.5889 260.476L66.0679 260.985L65.5674 261.399L65.0937 261.71L64.6527 261.911L64.25 261.997L63.8907 261.965L63.579 261.816L63.3182 261.549L63.1105 261.17L62.9573 260.685L62.8587 260.101L62.8136 259.429L62.8202 258.679L62.8756 257.862L62.9762 256.991L63.1178 256.077L63.2959 255.134L63.5055 254.171L63.7416 253.2L63.9991 252.23L64.2732 251.271L64.5592 250.329L64.8527 249.411L65.1496 248.522L65.4464 247.666L65.7398 246.847L66.0269 246.068L66.3052 245.329L66.5725 244.632L66.827 243.977L67.0672 243.364L67.2918 242.792L67.4996 242.262L67.6898 241.771L67.8616 241.32L68.0142 240.906L68.147 240.528L68.2593 240.186L68.3506 239.878L68.4201 239.603L68.4671 239.361L68.4907 239.149L68.4897 238.969L68.463 238.819L68.4091 238.699L68.3263 238.608L68.2134 238.548L68.0704 238.515L67.8971 238.508L67.6932 238.526L67.4581 238.567L67.191 238.631L66.891 238.717L66.5571 238.825L66.1881 238.953L65.783 239.101L65.3405 239.268L64.8593 239.454L64.3385 239.658L63.7771 239.878L63.1741 240.115L62.5292 240.366L61.8421 240.63L61.1132 240.906L60.3432 241.191L59.5335 241.484L58.6865 241.78L57.8052 242.077L56.8935 242.372L55.9565 242.66L55.0004 242.937L54.0324 243.199L53.0609 243.441L52.0954 243.657L51.1461 243.843L50.2245 243.994L49.3421 244.105L48.5113 244.171L47.7439 244.19L47.0519 244.157L46.4462 244.072L45.9367 243.932L45.5317 243.737L45.2379 243.489L45.0599 243.189L45 242.84L45.0582 242.448L45.2322 242.015L45.5175 241.549L45.9078 241.054L46.3947 240.538L46.9688 240.005L47.6193 239.463L48.335 238.917L49.1042 238.373L49.9152 237.835L50.7568 237.308L51.6181 236.796L52.4891 236.3L53.3606 235.825L54.2246 235.371L55.0738 234.94L55.9021 234.532L56.7044 234.148L57.4764 233.787L58.2149 233.449L58.9172 233.134L59.5814 232.84L60.2063 232.566L60.791 232.311L61.3351 232.073L61.8383 231.853L62.301 231.647L62.7233 231.455L63.1055 231.276L63.4481 231.108L63.7515 230.95L64.016 230.801L64.2417 230.659L64.4287 230.523L64.5768 230.393L64.6857 230.266L64.7545 230.142L64.7823 230.019L64.7679 229.897L64.712 229.774L64.6158 229.648L64.4801 229.519L64.3055 229.385L64.0921 229.245L63.84 229.098L63.549 228.943L63.2189 228.778L62.8493 228.603L62.4399 228.415L61.9901 228.214L61.4998 227.999L60.9687 227.767L60.397 227.518L59.7848 227.25L59.133 226.962L58.4426 226.654L57.7154 226.323L56.9538 225.969L56.1607 225.593L55.3402 225.192L54.497 224.769L53.637 224.322L52.767 223.853L51.8949 223.364L51.0295 222.857L50.1805 222.334L49.3585 221.799L48.5748 221.256L47.8408 220.71L47.1682 220.167L46.5686 219.63L46.0528 219.108L45.6308 218.606L45.3112 218.13L45.1012 217.686L45.0058 217.28L45.028 216.917L45.1685 216.601L45.4258 216.336L45.796 216.124L46.273 215.967L46.8491 215.864L47.5148 215.815L48.2594 215.817L49.0713 215.869L49.9386 215.966L50.849 216.105L51.7907 216.28L52.7522 216.487L53.7229 216.721L54.693 216.977L55.6537 217.25L56.5975 217.535L57.5178 217.828L58.4093 218.125L59.2677 218.422L60.0895 218.716L60.8723 219.004L61.6144 219.283L62.3149 219.551L62.9733 219.807L63.5895 220.048L64.1641 220.274L64.6978 220.483L65.1915 220.675L65.6462 220.848L66.0631 221.002L66.4434 221.136L66.7884 221.25L67.099 221.343L67.3765 221.415L67.6217 221.464L67.8355 221.489L68.0185 221.49L68.1711 221.465L68.2936 221.414L68.386 221.333L68.4489 221.223L68.4841 221.082L68.4931 220.911L68.4772 220.71L68.4376 220.477L68.3751 220.213L68.2907 219.915L68.185 219.584L68.0586 219.218L67.9123 218.816L67.7466 218.376L67.5622 217.898L67.3599 217.381L67.1405 216.823L66.9052 216.223L66.655 215.581L66.3916 214.898L66.1166 214.172L65.8321 213.405L65.5404 212.599L65.2444 211.755L64.9471 210.876L64.652 209.967L64.3632 209.031L64.0848 208.077L63.8215 207.109L63.5781 206.138L63.3595 205.171L63.1708 204.22L63.0171 203.296L62.9029 202.41L62.8327 201.575L62.8102 200.802L62.8386 200.104L62.92 199.491L63.0558 198.973L63.2462 198.56L63.4903 198.257L63.7861 198.069L64.1307 198L64.52 198.049L64.9494 198.214L65.4133 198.49L65.906 198.873L66.4211 199.352L66.9525 199.92L67.494 200.565L68.0398 201.275L68.5844 202.041L69.1229 202.849L69.651 203.688L70.1648 204.549L70.6615 205.419L71.1386 206.291L71.5942 207.156L72.0272 208.006L72.4369 208.836L72.823 209.641L73.1857 210.416L73.5253 211.157L73.8425 211.862L74.1384 212.529L74.414 213.157L74.6704 213.745L74.909 214.293L75.1309 214.799L75.3376 215.265L75.5304 215.69L75.7106 216.076L75.8794 216.422L76.0383 216.728L76.1883 216.996L76.3308 217.225L76.4669 217.415L76.5978 217.566L76.7248 217.678L76.8489 217.75L76.9715 217.781L77.0938 217.77L77.217 217.717L77.3425 217.624L77.4714 217.492L77.6049 217.32L77.7441 217.11L77.8904 216.861L78.0449 216.573L78.2088 216.246L78.3834 215.88L78.57 215.473L78.7699 215.027L78.9844 214.54L79.2148 214.012L79.4626 213.443L79.7288 212.834L80.0149 212.186L80.3218 211.498L80.6506 210.774L81.0022 210.015L81.377 209.224L81.7755 208.406L82.1974 207.564L82.6424 206.705L83.1094 205.836L83.5969 204.964L84.1029 204.097L84.6246 203.247L85.1586 202.422L85.7009 201.635L86.2468 200.897L86.791 200.219L87.328 199.613L87.8517 199.09L88.3559 198.66L88.8343 198.332L89.2809 198.113L89.69 198.009L90.0565 198.021L90.3761 198.153L90.6452 198.401L90.8614 198.762L91.0233 199.231L91.1306 199.799L91.1841 200.458L91.1856 201.197L91.1378 202.004L91.0441 202.867L90.9087 203.775L90.7361 204.714L90.5312 205.675L90.299 206.645L90.0446 207.615L89.7728 208.577L89.4884 209.523L89.1958 210.445L88.8991 211.339L88.6021 212.2L88.3079 213.025L88.0197 213.811L87.7399 214.556L87.4707 215.26L87.214 215.922L86.9714 216.541L86.7443 217.119L86.5337 217.656L86.3406 218.153L86.1659 218.611L86.0102 219.031L85.8742 219.414L85.7586 219.762L85.6639 220.075L85.5908 220.355L85.5402 220.603L85.5129 220.819L85.5098 221.004L85.5323 221.159L85.5818 221.284L85.6599 221.379L85.768 221.444L85.9062 221.482L86.0747 221.493L86.2736 221.479L86.5037 221.441L86.7657 221.38L87.0604 221.298L87.3888 221.194L87.7521 221.069L88.1514 220.924L88.5879 220.76L89.0628 220.577L89.5772 220.376L90.1322 220.158L90.7285 219.924L91.3667 219.675L92.047 219.412L92.7693 219.138L93.5329 218.854L94.3363 218.563L95.1776 218.267L96.0537 217.97L96.9609 217.675L97.8942 217.385L98.8477 217.106L99.8143 216.841L100.786 216.596L101.753 216.375L102.706 216.184L103.632 216.027L104.522 215.91L105.362 215.836L106.14 215.81L106.845 215.834L107.465 215.911L107.99 216.042L108.412 216.228L108.724 216.468L108.921 216.76L109 217.101L108.96 217.487L108.805 217.913L108.537 218.375L108.162 218.865L107.69 219.379L107.129 219.909L106.49 220.45L105.784 220.996L105.023 221.541L104.218 222.08L103.38 222.609L102.521 223.124L101.651 223.622L100.779 224.101L99.9136 224.558L99.0616 224.993L98.2296 225.404L97.4229 225.792L96.6458 226.157L95.9018 226.498L95.1935 226.817L94.5231 227.115L93.8919 227.392L93.3008 227.65L92.7503 227.89L92.2405 228.113L91.7714 228.321L91.3427 228.515L90.9541 228.696L90.6052 228.866L90.2956 229.025L90.0249 229.176L89.7931 229.319L89.5999 229.456L89.4455 229.587L89.3304 229.714L89.2551 229.838L89.2207 229.961L89.2186 230Z" fill="#F31818"/>
<path fill-rule="evenodd" clip-rule="evenodd" d="M877.936 382.999L877.943 383.355L877.961 383.711L877.992 384.068L878.035 384.427L878.09 384.787L878.157 385.149L878.236 385.514L878.327 385.883L878.429 386.254L878.542 386.63L878.667 387.01L878.803 387.394L878.948 387.784L879.105 388.179L879.27 388.58L879.445 388.987L879.629 389.4L879.822 389.82L880.022 390.247L880.229 390.681L880.443 391.122L880.663 391.571L880.888 392.028L881.117 392.492L881.349 392.964L881.584 393.444L881.821 393.932L882.058 394.427L882.294 394.93L882.529 395.44L882.761 395.958L882.989 396.481L883.212 397.012L883.428 397.547L883.635 398.089L883.834 398.634L884.022 399.184L884.197 399.737L884.359 400.292L884.506 400.849L884.637 401.406L884.749 401.962L884.843 402.517L884.916 403.069L884.967 403.618L884.996 404.161L885 404.698L884.98 405.227L884.933 405.748L884.86 406.259L884.76 406.758L884.632 407.244L884.475 407.717L884.291 408.175L884.077 408.618L883.835 409.043L883.565 409.45L883.268 409.839L882.942 410.208L882.591 410.558L882.213 410.886L881.811 411.194L881.384 411.481L880.936 411.746L880.466 411.99L879.976 412.212L879.469 412.413L878.944 412.594L878.405 412.754L877.851 412.894L877.287 413.015L876.712 413.118L876.129 413.204L875.539 413.272L874.943 413.326L874.345 413.365L873.745 413.39L873.144 413.404L872.544 413.406L871.947 413.399L871.353 413.383L870.764 413.36L870.182 413.332L869.606 413.299L869.039 413.263L868.481 413.225L867.932 413.186L867.394 413.148L866.868 413.112L866.353 413.08L865.85 413.052L865.36 413.03L864.883 413.015L864.42 413.009L863.97 413.012L863.534 413.026L863.113 413.053L862.705 413.092L862.312 413.147L861.932 413.218L861.568 413.306L861.217 413.413L860.881 413.54L860.559 413.689L860.251 413.862L859.956 414.059L859.674 414.279L859.403 414.523L859.141 414.788L858.888 415.076L858.642 415.384L858.401 415.712L858.166 416.06L857.935 416.426L857.706 416.811L857.479 417.212L857.254 417.63L857.028 418.063L856.801 418.511L856.572 418.973L856.341 419.446L856.106 419.932L855.867 420.427L855.623 420.931L855.373 421.443L855.117 421.961L854.853 422.483L854.582 423.009L854.303 423.536L854.014 424.063L853.716 424.589L853.409 425.11L853.091 425.626L852.763 426.134L852.425 426.633L852.076 427.121L851.716 427.595L851.345 428.054L850.963 428.496L850.571 428.919L850.168 429.321L849.756 429.7L849.334 430.055L848.902 430.384L848.462 430.686L848.014 430.959L847.558 431.203L847.096 431.415L846.628 431.595L846.155 431.743L845.677 431.858L845.196 431.939L844.713 431.986L844.228 432L843.743 431.98L843.257 431.927L842.773 431.842L842.291 431.724L841.812 431.576L841.336 431.398L840.865 431.19L840.398 430.955L839.938 430.694L839.483 430.408L839.036 430.098L838.596 429.767L838.164 429.416L837.74 429.047L837.324 428.661L836.916 428.26L836.518 427.846L836.128 427.42L835.747 426.985L835.375 426.541L835.011 426.091L834.656 425.636L834.31 425.177L833.972 424.716L833.641 424.255L833.318 423.793L833.002 423.334L832.694 422.877L832.391 422.424L832.095 421.976L831.804 421.534L831.519 421.098L831.238 420.669L830.961 420.249L830.689 419.837L830.419 419.434L830.152 419.041L829.888 418.658L829.625 418.286L829.364 417.924L829.103 417.574L828.843 417.235L828.582 416.907L828.321 416.591L828.058 416.287L827.794 415.995L827.528 415.714L827.259 415.445L826.987 415.188L826.712 414.943L826.432 414.71L826.149 414.488L825.86 414.277L825.567 414.078L825.267 413.89L824.962 413.713L824.65 413.546L824.332 413.39L824.007 413.244L823.674 413.108L823.333 412.981L822.984 412.864L822.627 412.755L822.262 412.655L821.887 412.564L821.503 412.48L821.11 412.403L820.708 412.333L820.295 412.269L819.873 412.212L819.442 412.159L819 412.112L818.548 412.069L818.087 412.029L817.615 411.992L817.135 411.958L816.644 411.925L816.144 411.893L815.636 411.862L815.119 411.83L814.593 411.796L814.06 411.761L813.52 411.722L812.974 411.68L812.421 411.633L811.864 411.58L811.303 411.52L810.738 411.454L810.172 411.379L809.604 411.295L809.037 411.2L808.471 411.095L807.908 410.978L807.349 410.848L806.796 410.704L806.249 410.546L805.712 410.373L805.185 410.185L804.669 409.98L804.167 409.758L803.68 409.519L803.21 409.263L802.758 408.988L802.326 408.695L801.915 408.384L801.527 408.055L801.163 407.707L800.825 407.341L800.513 406.958L800.228 406.558L799.972 406.141L799.745 405.707L799.548 405.259L799.38 404.796L799.244 404.319L799.137 403.829L799.061 403.328L799.016 402.816L799 402.295L799.013 401.765L799.055 401.228L799.125 400.685L799.221 400.137L799.343 399.586L799.489 399.033L799.658 398.478L799.848 397.923L800.059 397.369L800.287 396.817L800.532 396.268L800.792 395.723L801.065 395.182L801.35 394.647L801.644 394.118L801.946 393.595L802.254 393.08L802.566 392.573L802.881 392.074L803.197 391.583L803.513 391.1L803.826 390.627L804.136 390.162L804.44 389.706L804.737 389.259L805.026 388.821L805.306 388.391L805.575 387.97L805.832 387.556L806.075 387.151L806.304 386.752L806.517 386.361L806.714 385.976L806.892 385.597L807.05 385.223L807.189 384.854L807.306 384.489L807.4 384.127L807.47 383.768L807.514 383.411L807.533 383.055L807.523 382.699L807.487 382.343L807.425 381.985L807.338 381.624L807.228 381.26L807.097 380.892L806.944 380.52L806.772 380.143L806.582 379.76L806.374 379.37L806.15 378.974L805.911 378.571L805.658 378.16L805.393 377.741L805.117 377.314L804.83 376.879L804.535 376.434L804.233 375.981L803.925 375.52L803.613 375.049L803.298 374.569L802.982 374.081L802.666 373.584L802.353 373.08L802.043 372.567L801.739 372.047L801.443 371.52L801.155 370.986L800.878 370.448L800.614 369.904L800.364 369.356L800.13 368.805L799.913 368.251L799.717 367.696L799.541 367.141L799.387 366.587L799.257 366.035L799.153 365.486L799.075 364.942L799.024 364.403L799.001 363.871L799.008 363.346L799.044 362.831L799.11 362.327L799.206 361.833L799.333 361.352L799.491 360.884L799.679 360.431L799.897 359.993L800.144 359.571L800.419 359.165L800.723 358.776L801.053 358.405L801.409 358.052L801.789 357.716L802.193 357.399L802.618 357.101L803.064 356.82L803.529 356.558L804.01 356.313L804.508 356.086L805.019 355.876L805.543 355.682L806.077 355.505L806.621 355.342L807.172 355.194L807.729 355.06L808.291 354.939L808.856 354.83L809.423 354.732L809.991 354.644L810.558 354.566L811.123 354.497L811.686 354.436L812.244 354.381L812.798 354.332L813.347 354.288L813.889 354.249L814.424 354.212L814.952 354.178L815.472 354.146L815.983 354.114L816.486 354.082L816.979 354.05L817.463 354.016L817.938 353.98L818.402 353.942L818.857 353.9L819.302 353.854L819.737 353.803L820.162 353.747L820.577 353.685L820.983 353.618L821.379 353.543L821.766 353.461L822.143 353.372L822.512 353.275L822.872 353.169L823.223 353.054L823.566 352.931L823.901 352.798L824.229 352.655L824.55 352.502L824.863 352.339L825.171 352.165L825.472 351.98L825.767 351.785L826.057 351.578L826.342 351.359L826.623 351.13L826.9 350.888L827.173 350.635L827.442 350.37L827.709 350.093L827.974 349.805L828.237 349.504L828.499 349.192L828.76 348.868L829.02 348.533L829.281 348.186L829.542 347.828L829.804 347.459L830.068 347.079L830.334 346.689L830.602 346.29L830.874 345.881L831.149 345.463L831.429 345.037L831.713 344.603L832.002 344.163L832.296 343.717L832.597 343.265L832.903 342.809L833.217 342.35L833.537 341.89L833.865 341.428L834.201 340.967L834.545 340.507L834.897 340.051L835.258 339.599L835.628 339.153L836.006 338.715L836.393 338.286L836.788 337.868L837.193 337.463L837.606 337.072L838.028 336.697L838.457 336.34L838.895 336.002L839.34 335.686L839.792 335.392L840.251 335.123L840.715 334.879L841.185 334.663L841.66 334.475L842.138 334.317L842.619 334.189L843.103 334.094L843.588 334.03L844.074 334L844.559 334.003L845.043 334.04L845.524 334.11L846.003 334.214L846.478 334.352L846.948 334.522L847.412 334.724L847.87 334.957L848.32 335.221L848.763 335.514L849.197 335.834L849.622 336.181L850.038 336.553L850.444 336.948L850.839 337.365L851.224 337.801L851.599 338.254L851.962 338.724L852.315 339.208L852.657 339.703L852.988 340.209L853.309 340.722L853.619 341.242L853.92 341.766L854.212 342.293L854.494 342.82L854.768 343.347L855.034 343.871L855.292 344.39L855.544 344.904L855.79 345.411L856.031 345.909L856.267 346.398L856.499 346.875L856.728 347.341L856.956 347.793L857.182 348.231L857.407 348.654L857.634 349.061L857.862 349.451L858.092 349.823L858.326 350.177L858.564 350.511L858.809 350.826L859.06 351.12L859.319 351.392L859.587 351.643L859.865 351.871L860.156 352.076L860.459 352.256L860.777 352.412L861.108 352.546L861.454 352.66L861.815 352.754L862.189 352.83L862.578 352.889L862.981 352.933L863.398 352.964L863.83 352.982L864.275 352.988L864.734 352.985L865.207 352.973L865.693 352.953L866.191 352.927L866.702 352.896L867.225 352.861L867.76 352.823L868.305 352.785L868.86 352.747L869.425 352.71L869.998 352.676L870.578 352.645L871.165 352.621L871.757 352.603L872.353 352.593L872.953 352.592L873.553 352.602L874.154 352.623L874.753 352.658L875.349 352.706L875.941 352.77L876.527 352.85L877.105 352.947L877.673 353.063L878.23 353.197L878.774 353.351L879.303 353.524L879.817 353.719L880.312 353.935L880.788 354.172L881.244 354.43L881.677 354.71L882.087 355.011L882.473 355.333L882.833 355.675L883.167 356.039L883.474 356.421L883.752 356.823L884.003 357.242L884.226 357.679L884.42 358.132L884.585 358.601L884.722 359.083L884.831 359.579L884.913 360.086L884.968 360.603L884.996 361.13L885 361.664L884.979 362.206L884.934 362.753L884.868 363.304L884.781 363.858L884.674 364.414L884.549 364.971L884.408 365.528L884.25 366.084L884.079 366.638L883.895 367.188L883.7 367.735L883.495 368.278L883.281 368.816L883.061 369.348L882.834 369.874L882.603 370.393L882.369 370.905L882.133 371.411L881.896 371.908L881.659 372.399L881.424 372.881L881.19 373.356L880.96 373.823L880.734 374.282L880.512 374.733L880.297 375.177L880.087 375.613L879.885 376.042L879.69 376.465L879.503 376.88L879.325 377.289L879.156 377.691L878.997 378.088L878.848 378.48L878.709 378.866L878.581 379.247L878.464 379.624L878.358 379.997L878.264 380.366L878.181 380.732L878.11 381.095L878.051 381.456L878.004 381.815L877.97 382.173L877.947 382.529L877.937 382.885L877.936 382.999Z" fill="#F31818"/>
<path fill-rule="evenodd" clip-rule="evenodd" d="M898.062 540.014L898.131 540.398L898.336 540.787L898.678 541.183L899.156 541.592L899.768 542.018L900.512 542.465L901.384 542.935L902.38 543.434L903.493 543.964L904.714 544.529L906.029 545.129L907.425 545.766L908.88 546.441L910.373 547.152L911.874 547.896L913.353 548.669L914.773 549.464L916.098 550.273L917.288 551.085L918.304 551.889L919.109 552.672L919.672 553.42L919.966 554.119L919.974 554.758L919.688 555.326L919.11 555.812L918.255 556.213L917.144 556.526L915.808 556.751L914.286 556.893L912.62 556.959L910.852 556.958L909.027 556.902L907.186 556.804L905.369 556.677L903.611 556.535L901.941 556.39L900.385 556.256L898.967 556.147L897.703 556.073L896.61 556.048L895.704 556.084L894.997 556.193L894.505 556.391L894.246 556.693L894.229 557.112L894.431 557.647L894.832 558.294L895.41 559.051L896.148 559.915L897.025 560.881L898.022 561.945L899.118 563.098L900.288 564.331L901.504 565.632L902.737 566.984L903.955 568.367L905.12 569.758L906.199 571.134L907.154 572.464L907.951 573.723L908.56 574.88L908.955 575.911L909.118 576.792L909.038 577.505L908.715 578.038L908.154 578.385L907.373 578.548L906.392 578.533L905.239 578.353L903.946 578.027L902.546 577.575L901.073 577.022L899.559 576.39L898.032 575.706L896.52 574.991L895.044 574.267L893.623 573.555L892.273 572.869L891.004 572.226L889.823 571.638L888.738 571.115L887.751 570.666L886.862 570.298L886.073 570.016L885.382 569.825L884.787 569.73L884.286 569.734L883.876 569.841L883.554 570.052L883.316 570.371L883.16 570.801L883.081 571.343L883.077 571.999L883.141 572.77L883.271 573.658L883.461 574.661L883.704 575.778L883.994 577.004L884.322 578.334L884.679 579.758L885.054 581.265L885.434 582.838L885.805 584.457L886.152 586.097L886.458 587.73L886.707 589.324L886.881 590.842L886.964 592.248L886.943 593.504L886.804 594.574L886.539 595.425L886.143 596.03L885.617 596.369L884.966 596.432L884.199 596.218L883.329 595.736L882.373 595.005L881.35 594.051L880.281 592.908L879.185 591.613L878.084 590.208L876.994 588.734L875.931 587.231L874.908 585.737L873.936 584.287L873.023 582.912L872.173 581.64L871.39 580.495L870.676 579.499L870.031 578.671L869.454 578.032L868.944 577.599L868.498 577.395L868.116 577.444L867.789 577.752L867.507 578.299L867.257 579.068L867.031 580.039L866.817 581.197L866.609 582.524L866.398 584.001L866.176 585.605L865.936 587.31L865.671 589.086L865.375 590.898L865.043 592.707L864.672 594.471L864.259 596.146L863.804 597.686L863.307 599.047L862.773 600.188L862.206 601.076L861.613 601.683L861.002 601.993L860.382 602L859.762 601.708L859.15 601.132L858.555 600.295L857.983 599.231L857.439 597.974L856.928 596.566L856.451 595.046L856.008 593.455L855.6 591.83L855.223 590.205L854.875 588.61L854.553 587.07L854.251 585.607L853.966 584.238L853.693 582.976L853.426 581.83L853.162 580.808L852.895 579.916L852.622 579.155L852.337 578.528L852.036 578.037L851.715 577.68L851.37 577.458L850.996 577.37L850.59 577.415L850.148 577.592L849.665 577.9L849.138 578.336L848.564 578.897L847.938 579.581L847.259 580.383L846.524 581.295L845.732 582.31L844.883 583.417L843.978 584.601L843.022 585.846L842.018 587.131L840.975 588.432L839.902 589.72L838.814 590.964L837.724 592.13L836.651 593.182L835.614 594.085L834.634 594.804L833.731 595.308L832.926 595.572L832.235 595.576L831.674 595.312L831.253 594.778L830.977 593.983L830.846 592.947L830.854 591.694L830.993 590.259L831.246 588.68L831.597 586.995L832.026 585.246L832.511 583.472L833.03 581.71L833.561 579.993L834.086 578.349L834.583 576.803L835.036 575.376L835.427 574.084L835.741 572.942L835.962 571.962L836.075 571.155L836.063 570.531L835.909 570.104L835.592 569.886L835.108 569.869L834.467 570.031L833.675 570.351L832.74 570.812L831.67 571.395L830.473 572.083L829.159 572.858L827.743 573.698L826.242 574.582L824.674 575.484L823.065 576.378L821.443 577.235L819.839 578.027L818.288 578.722L816.824 579.294L815.483 579.716L814.298 579.968L813.297 580.032L812.504 579.899L811.936 579.568L811.6 579.041L811.498 578.332L811.619 577.456L811.951 576.437L812.469 575.3L813.149 574.073L813.96 572.782L814.872 571.455L815.855 570.116L816.878 568.788L817.915 567.489L818.941 566.235L819.934 565.038L820.876 563.906L821.752 562.848L822.548 561.865L823.256 560.962L823.866 560.137L824.372 559.391L824.77 558.721L825.055 558.125L825.224 557.6L825.274 557.142L825.203 556.749L825.01 556.417L824.691 556.141L824.246 555.918L823.674 555.743L822.974 555.614L822.146 555.524L821.19 555.469L820.11 555.444L818.91 555.444L817.596 555.461L816.177 555.49L814.667 555.521L813.08 555.548L811.438 555.56L809.766 555.549L808.093 555.505L806.452 555.419L804.881 555.281L803.419 555.083L802.106 554.819L800.981 554.483L800.081 554.074L799.437 553.592L799.072 553.038L799 552.42L799.226 551.745L799.744 551.023L800.537 550.267L801.579 549.489L802.835 548.702L804.267 547.916L805.831 547.145L807.483 546.395L809.179 545.676L810.877 544.992L812.54 544.346L814.133 543.741L815.625 543.175L816.99 542.648L818.206 542.157L819.252 541.698L820.11 541.266L820.76 540.855L821.184 540.461L821.36 540.075L821.268 539.691L820.921 539.3L820.34 538.896L819.547 538.471L818.559 538.021L817.395 537.54L816.075 537.025L814.62 536.472L813.056 535.879L811.413 535.246L809.722 534.574L808.021 533.866L806.35 533.125L804.753 532.36L803.274 531.578L801.958 530.79L800.843 530.007L799.968 529.243L799.36 528.509L799.04 527.818L799.017 527.18L799.289 526.606L799.847 526.1L800.669 525.667L801.725 525.308L802.983 525.022L804.402 524.804L805.942 524.647L807.565 524.546L809.231 524.489L810.907 524.469L812.562 524.475L814.169 524.498L815.705 524.529L817.155 524.559L818.504 524.58L819.741 524.586L820.86 524.57L821.855 524.526L822.724 524.447L823.465 524.331L824.078 524.171L824.563 523.964L824.922 523.706L825.155 523.391L825.265 523.018L825.253 522.582L825.121 522.079L824.873 521.505L824.511 520.859L824.039 520.137L823.461 519.338L822.784 518.459L822.015 517.502L821.163 516.467L820.24 515.359L819.262 514.181L818.244 512.944L817.208 511.658L816.178 510.337L815.179 509L814.241 507.666L813.394 506.361L812.67 505.111L812.097 503.942L811.703 502.882L811.513 501.959L811.542 501.194L811.803 500.608L812.298 500.213L813.021 500.017L813.958 500.019L815.087 500.213L816.382 500.583L817.811 501.109L819.338 501.768L820.929 502.532L822.548 503.372L824.165 504.257L825.748 505.16L827.273 506.052L828.719 506.909L830.066 507.707L831.302 508.425L832.414 509.043L833.392 509.545L834.23 509.912L834.921 510.126L835.455 510.168L835.826 510.017L836.031 509.655L836.085 509.093L836.01 508.343L835.822 507.416L835.536 506.325L835.168 505.079L834.733 503.694L834.248 502.184L833.73 500.569L833.199 498.872L832.673 497.121L832.175 495.347L831.727 493.586L831.348 491.876L831.062 490.258L830.885 488.773L830.834 487.459L830.919 486.35L831.149 485.476L831.524 484.857L832.042 484.507L832.692 484.426L833.463 484.609L834.337 485.039L835.294 485.693L836.316 486.54L837.379 487.549L838.466 488.683L839.557 489.906L840.636 491.183L841.689 492.483L842.707 493.776L843.679 495.036L844.601 496.242L845.467 497.375L846.278 498.421L847.031 499.367L847.728 500.204L848.37 500.926L848.961 501.527L849.502 502.004L849.999 502.352L850.454 502.571L850.871 502.659L851.254 502.613L851.608 502.434L851.936 502.12L852.243 501.671L852.532 501.088L852.809 500.369L853.077 499.518L853.342 498.537L853.607 497.431L853.878 496.204L854.159 494.868L854.455 493.433L854.77 491.916L855.109 490.336L855.476 488.718L855.874 487.089L856.306 485.483L856.772 483.936L857.273 482.488L857.806 481.179L858.37 480.049L858.959 479.136L859.566 478.474L860.184 478.089L860.806 478L861.42 478.214L862.02 478.728L862.596 479.529L863.141 480.593L863.65 481.888L864.119 483.375L864.545 485.012L864.93 486.752L865.273 488.552L865.58 490.368L865.854 492.159L866.102 493.89L866.329 495.529L866.543 497.049L866.751 498.426L866.962 499.64L867.183 500.673L867.424 501.507L867.695 502.127L868.006 502.514L868.37 502.647L868.795 502.52L869.285 502.158L869.84 501.582L870.464 500.812L871.155 499.868L871.916 498.768L872.745 497.534L873.638 496.189L874.593 494.76L875.6 493.276L876.651 491.772L877.734 490.285L878.834 488.853L879.934 487.519L881.013 486.323L882.053 485.304L883.032 484.499L883.932 483.935L884.734 483.634L885.423 483.609L885.99 483.861L886.427 484.383L886.733 485.158L886.912 486.161L886.97 487.362L886.918 488.724L886.771 490.211L886.544 491.785L886.255 493.409L885.919 495.05L885.554 496.679L885.175 498.269L884.797 499.798L884.433 501.25L884.095 502.611L883.792 503.872L883.533 505.024L883.325 506.063L883.176 506.988L883.09 507.797L883.072 508.489L883.127 509.067L883.258 509.532L883.469 509.886L883.764 510.132L884.146 510.271L884.618 510.308L885.183 510.244L885.843 510.083L886.6 509.83L887.457 509.489L888.413 509.064L889.467 508.564L890.618 507.996L891.859 507.369L893.185 506.696L894.585 505.99L896.045 505.268L897.548 504.548L899.072 503.851L900.594 503.2L902.084 502.619L903.51 502.133L904.841 501.764L906.042 501.536L907.081 501.466L907.929 501.571L908.561 501.859L908.961 502.334L909.119 502.991L909.032 503.82L908.71 504.805L908.167 505.925L907.426 507.154L906.518 508.465L905.475 509.829L904.333 511.218L903.129 512.607L901.897 513.97L900.671 515.289L899.484 516.546L898.362 517.726L897.331 518.819L896.413 519.817L895.629 520.713L894.998 521.505L894.538 522.187L894.27 522.758L894.215 523.215L894.397 523.553L894.816 523.782L895.456 523.918L896.301 523.976L897.336 523.969L898.546 523.91L899.918 523.81L901.432 523.683L903.068 523.54L904.801 523.396L906.603 523.262L908.44 523.153L910.274 523.083L912.065 523.063L913.769 523.107L915.342 523.224L916.741 523.422L917.927 523.706L918.867 524.079L919.535 524.539L919.915 525.081L920 525.698L919.796 526.38L919.316 527.114L918.585 527.887L917.632 528.686L916.494 529.497L915.208 530.308L913.813 531.108L912.349 531.889L910.851 532.643L909.353 533.365L907.883 534.051L906.466 534.701L905.123 535.313L903.871 535.888L902.722 536.429L901.688 536.937L900.776 537.417L899.991 537.87L899.336 538.302L898.816 538.716L898.43 539.116L898.181 539.507L898.069 539.892L898.062 540.014Z" fill="#161723"/>
<path fill-rule="evenodd" clip-rule="evenodd" d="M738.371 608.454L738.27 608.692L738.176 608.932L738.088 609.175L738.006 609.423L737.93 609.673L737.858 609.928L737.792 610.186L737.73 610.448L737.672 610.714L737.619 610.984L737.568 611.258L737.521 611.537L737.477 611.819L737.435 612.106L737.396 612.396L737.359 612.691L737.323 612.991L737.288 613.294L737.255 613.601L737.222 613.913L737.19 614.229L737.157 614.548L737.125 614.872L737.092 615.2L737.058 615.531L737.022 615.866L736.986 616.204L736.947 616.545L736.906 616.89L736.863 617.238L736.817 617.588L736.768 617.941L736.715 618.296L736.659 618.654L736.599 619.013L736.534 619.374L736.465 619.736L736.391 620.099L736.312 620.463L736.227 620.827L736.137 621.19L736.041 621.554L735.938 621.917L735.829 622.278L735.714 622.638L735.591 622.996L735.462 623.351L735.325 623.704L735.181 624.053L735.03 624.399L734.871 624.74L734.704 625.077L734.529 625.409L734.346 625.736L734.155 626.056L733.956 626.37L733.749 626.678L733.534 626.978L733.311 627.27L733.08 627.555L732.842 627.831L732.595 628.098L732.34 628.356L732.079 628.605L731.809 628.844L731.533 629.073L731.249 629.291L730.959 629.499L730.661 629.695L730.358 629.881L730.048 630.056L729.733 630.219L729.412 630.37L729.086 630.51L728.755 630.638L728.419 630.754L728.079 630.858L727.735 630.951L727.387 631.032L727.036 631.101L726.682 631.158L726.325 631.204L725.967 631.238L725.606 631.262L725.243 631.274L724.88 631.275L724.515 631.266L724.15 631.246L723.784 631.217L723.419 631.177L723.054 631.128L722.689 631.069L722.326 631.002L721.963 630.926L721.602 630.842L721.242 630.749L720.884 630.65L720.529 630.543L720.175 630.429L719.824 630.308L719.476 630.182L719.13 630.05L718.787 629.912L718.448 629.769L718.111 629.622L717.778 629.47L717.448 629.314L717.121 629.155L716.798 628.992L716.478 628.826L716.162 628.658L715.849 628.487L715.54 628.314L715.235 628.139L714.933 627.963L714.635 627.786L714.34 627.608L714.049 627.429L713.761 627.249L713.476 627.07L713.195 626.89L712.917 626.711L712.643 626.532L712.371 626.354L712.102 626.177L711.837 626L711.574 625.825L711.314 625.651L711.056 625.479L710.801 625.308L710.549 625.139L710.298 624.972L710.05 624.806L709.804 624.643L709.56 624.482L709.318 624.323L709.077 624.166L708.838 624.012L708.6 623.86L708.363 623.711L708.128 623.564L707.893 623.419L707.66 623.278L707.427 623.139L707.195 623.002L706.964 622.868L706.732 622.737L706.501 622.608L706.27 622.482L706.039 622.359L705.808 622.238L705.576 622.12L705.345 622.004L705.112 621.891L704.879 621.78L704.645 621.672L704.41 621.566L704.174 621.463L703.937 621.362L703.699 621.263L703.459 621.166L703.218 621.072L702.976 620.979L702.731 620.889L702.485 620.8L702.237 620.713L701.986 620.628L701.734 620.545L701.48 620.463L701.223 620.382L700.964 620.303L700.703 620.225L700.439 620.148L700.172 620.072L699.903 619.997L699.631 619.923L699.357 619.849L699.08 619.776L698.8 619.703L698.517 619.63L698.231 619.557L697.942 619.484L697.651 619.411L697.356 619.337L697.059 619.263L696.759 619.188L696.456 619.112L696.15 619.035L695.841 618.957L695.53 618.878L695.216 618.796L694.899 618.713L694.58 618.628L694.259 618.54L693.935 618.45L693.609 618.358L693.281 618.263L692.952 618.164L692.62 618.063L692.287 617.958L691.953 617.849L691.617 617.737L691.281 617.621L690.944 617.5L690.607 617.375L690.269 617.246L689.931 617.112L689.594 616.973L689.258 616.828L688.922 616.679L688.588 616.524L688.256 616.363L687.925 616.197L687.597 616.024L687.272 615.846L686.949 615.662L686.631 615.471L686.316 615.274L686.005 615.07L685.7 614.86L685.399 614.643L685.104 614.42L684.815 614.19L684.532 613.954L684.256 613.711L683.988 613.461L683.727 613.204L683.474 612.941L683.229 612.672L682.994 612.396L682.767 612.114L682.55 611.826L682.343 611.532L682.146 611.232L681.96 610.926L681.785 610.615L681.62 610.299L681.468 609.978L681.326 609.652L681.197 609.321L681.08 608.986L680.974 608.647L680.881 608.304L680.801 607.958L680.733 607.609L680.677 607.257L680.634 606.903L680.603 606.547L680.585 606.188L680.579 605.829L680.586 605.468L680.605 605.106L680.635 604.744L680.677 604.381L680.731 604.019L680.797 603.657L680.873 603.296L680.96 602.936L681.058 602.578L681.166 602.221L681.283 601.866L681.41 601.513L681.546 601.163L681.691 600.815L681.844 600.47L682.005 600.128L682.174 599.79L682.349 599.455L682.531 599.123L682.72 598.795L682.914 598.471L683.113 598.151L683.317 597.835L683.525 597.524L683.737 597.216L683.953 596.912L684.172 596.613L684.394 596.318L684.617 596.027L684.843 595.741L685.07 595.458L685.298 595.18L685.526 594.906L685.755 594.636L685.984 594.37L686.212 594.108L686.439 593.849L686.665 593.594L686.89 593.343L687.113 593.095L687.334 592.85L687.552 592.608L687.768 592.369L687.98 592.132L688.19 591.898L688.396 591.667L688.598 591.437L688.797 591.21L688.991 590.984L689.181 590.759L689.366 590.536L689.546 590.313L689.722 590.091L689.892 589.87L690.057 589.649L690.216 589.427L690.37 589.206L690.517 588.983L690.659 588.76L690.795 588.535L690.924 588.309L691.046 588.08L691.162 587.849L691.271 587.616L691.373 587.379L691.468 587.14L691.557 586.897L691.64 586.65L691.718 586.4L691.79 586.146L691.857 585.888L691.919 585.627L691.978 585.361L692.032 585.092L692.083 584.819L692.131 584.541L692.175 584.259L692.217 583.973L692.257 583.683L692.294 583.389L692.33 583.09L692.365 582.788L692.399 582.481L692.432 582.17L692.464 581.855L692.496 581.536L692.529 581.213L692.562 580.886L692.596 580.555L692.631 580.221L692.668 579.883L692.706 579.542L692.746 579.198L692.789 578.851L692.835 578.501L692.883 578.148L692.935 577.793L692.991 577.436L693.051 577.077L693.114 576.717L693.183 576.355L693.256 575.992L693.334 575.628L693.418 575.264L693.507 574.9L693.603 574.537L693.704 574.174L693.812 573.812L693.926 573.452L694.048 573.094L694.176 572.738L694.311 572.385L694.454 572.035L694.604 571.689L694.762 571.347L694.928 571.009L695.102 570.676L695.283 570.349L695.473 570.027L695.671 569.712L695.876 569.404L696.09 569.103L696.312 568.809L696.541 568.523L696.779 568.246L697.024 567.977L697.278 567.717L697.538 567.467L697.806 567.227L698.082 566.996L698.364 566.776L698.654 566.567L698.95 566.368L699.252 566.181L699.561 566.004L699.875 565.84L700.195 565.686L700.521 565.545L700.851 565.415L701.186 565.297L701.526 565.191L701.869 565.096L702.216 565.013L702.567 564.943L702.92 564.883L703.277 564.836L703.635 564.799L703.996 564.774L704.358 564.76L704.721 564.757L705.086 564.765L705.451 564.783L705.816 564.811L706.182 564.849L706.547 564.897L706.912 564.954L707.276 565.02L707.638 565.094L708 565.177L708.36 565.268L708.718 565.367L709.074 565.473L709.428 565.586L709.779 565.705L710.128 565.83L710.474 565.962L710.817 566.099L711.157 566.241L711.495 566.388L711.829 566.539L712.159 566.694L712.486 566.853L712.81 567.015L713.13 567.18L713.447 567.348L713.76 567.519L714.07 567.691L714.376 567.866L714.678 568.042L714.977 568.219L715.272 568.397L715.564 568.576L715.853 568.755L716.138 568.935L716.419 569.114L716.698 569.294L716.973 569.472L717.245 569.651L717.514 569.828L717.78 570.005L718.043 570.18L718.304 570.354L718.562 570.527L718.817 570.698L719.07 570.867L719.321 571.035L719.569 571.201L719.816 571.364L720.06 571.526L720.303 571.685L720.544 571.842L720.783 571.997L721.021 572.149L721.258 572.299L721.494 572.446L721.728 572.591L721.962 572.733L722.195 572.872L722.427 573.009L722.659 573.144L722.89 573.275L723.121 573.405L723.352 573.531L723.583 573.655L723.814 573.776L724.046 573.895L724.277 574.011L724.51 574.124L724.743 574.235L724.977 574.344L725.211 574.45L725.447 574.554L725.684 574.655L725.922 574.754L726.161 574.851L726.402 574.946L726.645 575.039L726.889 575.13L727.135 575.219L727.383 575.306L727.633 575.391L727.884 575.475L728.139 575.557L728.395 575.638L728.653 575.718L728.915 575.796L729.178 575.873L729.444 575.949L729.713 576.024L729.984 576.099L730.258 576.172L730.535 576.246L730.815 576.319L731.097 576.392L731.382 576.464L731.671 576.537L731.962 576.61L732.256 576.684L732.553 576.758L732.852 576.833L733.155 576.908L733.46 576.985L733.769 577.063L734.08 577.143L734.393 577.224L734.709 577.307L735.028 577.392L735.349 577.479L735.672 577.568L735.998 577.66L736.325 577.755L736.655 577.853L736.986 577.954L737.319 578.058L737.653 578.166L737.988 578.278L738.324 578.393L738.661 578.513L738.999 578.637L739.336 578.766L739.674 578.899L740.011 579.038L740.348 579.181L740.683 579.33L741.018 579.484L741.351 579.644L741.681 579.809L742.01 579.981L742.336 580.158L742.658 580.342L742.978 580.531L743.293 580.728L743.604 580.93L743.911 581.139L744.212 581.355L744.508 581.577L744.798 581.806L745.082 582.041L745.359 582.283L745.629 582.532L745.891 582.787L746.146 583.049L746.391 583.318L746.629 583.592L746.857 583.873L747.075 584.161L747.284 584.454L747.482 584.753L747.67 585.057L747.847 585.368L748.013 585.683L748.168 586.004L748.311 586.329L748.442 586.659L748.562 586.993L748.669 587.332L748.764 587.674L748.846 588.019L748.916 588.368L748.974 588.719L749.019 589.073L749.052 589.429L749.072 589.787L749.079 590.147L749.075 590.508L749.058 590.869L749.03 591.232L748.989 591.594L748.937 591.956L748.873 592.318L748.799 592.679L748.713 593.039L748.617 593.398L748.511 593.755L748.395 594.111L748.27 594.464L748.135 594.814L747.991 595.163L747.84 595.508L747.68 595.85L747.512 596.189L747.338 596.525L747.157 596.857L746.97 597.186L746.777 597.51L746.578 597.831L746.375 598.148L746.167 598.46L745.956 598.768L745.74 599.073L745.522 599.373L745.301 599.668L745.077 599.96L744.852 600.247L744.625 600.53L744.398 600.809L744.169 601.083L743.94 601.354L743.712 601.621L743.483 601.884L743.256 602.143L743.03 602.398L742.805 602.65L742.581 602.899L742.36 603.144L742.142 603.387L741.925 603.626L741.712 603.863L741.502 604.097L741.296 604.329L741.093 604.559L740.894 604.787L740.699 605.013L740.508 605.238L740.322 605.462L740.141 605.684L739.965 605.906L739.794 606.128L739.628 606.349L739.468 606.57L739.313 606.792L739.165 607.014L739.022 607.238L738.886 607.462L738.755 607.688L738.632 607.916L738.515 608.147L738.405 608.38L738.371 608.454Z" fill="#F31818"/>
</svg>
