<svg width="74" height="71" viewBox="0 0 74 71" fill="none" xmlns="http://www.w3.org/2000/svg">
<path d="M34.0963 20.0766C35.3883 17.7589 36.0342 16.6001 37 16.6001C37.9658 16.6001 38.6118 17.7589 39.9038 20.0766L40.2381 20.6763C40.6052 21.3349 40.7888 21.6642 41.075 21.8815C41.3612 22.0987 41.7177 22.1794 42.4306 22.3407L43.0797 22.4876C45.5886 23.0552 46.843 23.3391 47.1415 24.2988C47.4399 25.2585 46.5847 26.2585 44.8743 28.2586L44.4319 28.7761C43.9458 29.3444 43.7028 29.6286 43.5935 29.9802C43.4841 30.3317 43.5209 30.7109 43.5944 31.4692L43.6613 32.1596C43.9199 34.8281 44.0491 36.1624 43.2678 36.7555C42.4864 37.3487 41.3119 36.8079 38.9629 35.7263L38.3551 35.4465C37.6876 35.1391 37.3538 34.9854 37 34.9854C36.6463 34.9854 36.3125 35.1391 35.645 35.4465L35.0372 35.7263C32.6882 36.8079 31.5136 37.3487 30.7323 36.7555C29.951 36.1624 30.0802 34.8281 30.3388 32.1596L30.4057 31.4692C30.4792 30.7109 30.516 30.3317 30.4066 29.9802C30.2973 29.6286 30.0543 29.3444 29.5682 28.7761L29.1257 28.2586C27.4154 26.2585 26.5602 25.2585 26.8586 24.2988C27.1571 23.3391 28.4115 23.0552 30.9204 22.4876L31.5695 22.3407C32.2824 22.1794 32.6389 22.0987 32.9251 21.8815C33.2113 21.6642 33.3949 21.3349 33.762 20.6763L34.0963 20.0766Z" stroke="#F31818" stroke-width="4"/>
<path d="M37 50.8306L24.1771 64.1076C22.3407 66.009 21.4225 66.9597 20.6449 67.2887C18.873 68.0384 16.9074 67.3968 15.9753 65.7645C15.5663 65.0482 15.4388 63.7562 15.1839 61.1722C15.04 59.7132 14.968 58.9837 14.7496 58.3727C14.2605 57.0049 13.2328 55.9408 11.9118 55.4344C11.3217 55.2082 10.6171 55.1337 9.20803 54.9847C6.71235 54.7208 5.46452 54.5888 4.7727 54.1653C3.19624 53.2002 2.57662 51.165 3.30066 49.3304C3.6184 48.5253 4.53659 47.5746 6.37299 45.6731L14.7496 37" stroke="#F31818" stroke-width="6"/>
<path d="M37 50.8306L49.8229 64.1076C51.6593 66.009 52.5775 66.9597 53.3551 67.2887C55.127 68.0384 57.0926 67.3968 58.0247 65.7645C58.4337 65.0482 58.5612 63.7562 58.8161 61.1722C58.96 59.7132 59.032 58.9837 59.2504 58.3727C59.7395 57.0049 60.7672 55.9408 62.0882 55.4344C62.6783 55.2082 63.3829 55.1337 64.792 54.9847C67.2876 54.7208 68.5355 54.5888 69.2273 54.1653C70.8038 53.2002 71.4234 51.165 70.6993 49.3304C70.3816 48.5253 69.4634 47.5746 67.627 45.6731L59.2504 37" stroke="#F31818" stroke-width="6"/>
<path d="M14.9 17.9495C13.8033 20.6854 13.2 23.6722 13.2 26.8C13.2 39.9444 23.8556 50.6 36.9999 50.6C50.1443 50.6 60.7999 39.9444 60.7999 26.8C60.7999 13.6556 50.1443 3 36.9999 3C33.8722 3 30.8853 3.60335 28.1495 4.7" stroke="#F31818" stroke-width="6" stroke-linecap="round"/>
</svg>
