<svg width="75" height="68" viewBox="0 0 75 68" fill="none" xmlns="http://www.w3.org/2000/svg">
<path d="M29.7207 4.71546C34.5994 2.42818 40.0669 2.42818 44.9457 4.71546L67.9188 15.4858C72.916 17.8285 72.9159 25.9383 67.9188 28.281L44.946 39.0512C40.0672 41.3385 34.5998 41.3385 29.721 39.0512L6.74782 28.2809C1.75071 25.9381 1.75073 17.8284 6.74784 15.4856L16.7333 10.8042" stroke="#F31818" stroke-width="6" stroke-linecap="round"/>
<path d="M3 21.8833V40.7667" stroke="#F31818" stroke-width="6" stroke-linecap="round"/>
<path d="M18.0564 58.1584L19.5098 55.534L19.5098 55.534L18.0564 58.1584ZM37.3334 67.8C38.9902 67.8 40.3334 66.4568 40.3334 64.8C40.3334 63.1431 38.9902 61.8 37.3334 61.8V67.8ZM56.6104 58.1584L55.157 55.534L55.157 55.534L56.6104 58.1584ZM64.3667 32.1833C64.3667 30.5265 63.0236 29.1833 61.3667 29.1833C59.7099 29.1833 58.3667 30.5265 58.3667 32.1833H64.3667ZM16.3 32.1833C16.3 30.5265 14.9569 29.1833 13.3 29.1833C11.6432 29.1833 10.3 30.5265 10.3 32.1833H16.3ZM48.9799 58.6235C47.4649 59.2943 46.7805 61.0662 47.4513 62.5812C48.122 64.0962 49.894 64.7806 51.409 64.1098L48.9799 58.6235ZM16.603 60.7829C19.1938 62.2177 22.6043 63.9483 26.1985 65.3271C29.7437 66.6872 33.7066 67.8 37.3334 67.8V61.8C34.7939 61.8 31.639 60.9879 28.3476 59.7252C25.1051 58.4813 21.9603 56.8911 19.5098 55.534L16.603 60.7829ZM64.3667 49.7806V32.1833H58.3667V49.7806H64.3667ZM16.3 49.7806V32.1833H10.3V49.7806H16.3ZM58.0638 60.7829C62.139 58.526 64.3667 54.2216 64.3667 49.7806H58.3667C58.3667 52.2614 57.137 54.4375 55.157 55.534L58.0638 60.7829ZM19.5098 55.534C17.5297 54.4375 16.3 52.2614 16.3 49.7806H10.3C10.3 54.2216 12.5278 58.526 16.603 60.7829L19.5098 55.534ZM51.409 64.1098C53.8894 63.0116 56.1871 61.8222 58.0638 60.7829L55.157 55.534C53.3916 56.5117 51.257 57.6153 48.9799 58.6235L51.409 64.1098Z" fill="#F31818"/>
</svg>
