<svg width="76" height="66" viewBox="0 0 76 66" fill="none" xmlns="http://www.w3.org/2000/svg">
<path d="M38 11.4022L35.4783 13.8293C35.4939 13.8455 35.5097 13.8616 35.5256 13.8775L38 11.4022ZM27.6699 56.997L25.5031 59.7456V59.7456L27.6699 56.997ZM48.3301 56.997L46.1633 54.2484L48.3301 56.997ZM21.6058 47.7976C20.1132 46.5692 17.9075 46.7834 16.6792 48.2759C15.4508 49.7684 15.665 51.9741 17.1575 53.2025L21.6058 47.7976ZM4.32927 38.7549C5.25681 40.4508 7.38354 41.0737 9.07946 40.1461C10.7754 39.2186 11.3983 37.0919 10.4707 35.396L4.32927 38.7549ZM42.3256 20.675C43.6926 22.0416 45.9087 22.0412 47.2753 20.6741C48.6419 19.307 48.6415 17.091 47.2744 15.7244L42.3256 20.675ZM7.5 23.7661C7.5 16.8086 11.43 11.0233 16.7178 8.60628C21.7849 6.29008 28.7243 6.81217 35.4783 13.8293L40.5217 8.97503C31.9762 0.0965836 21.9157 -1.46633 13.8077 2.23986C5.92027 5.8452 0.5 14.1897 0.5 23.7661H7.5ZM25.5031 59.7456C27.236 61.1117 29.1567 62.6179 31.1179 63.764C33.078 64.9094 35.4115 65.9 38 65.9V58.9C37.1885 58.9 36.122 58.5806 34.6496 57.7202C33.1783 56.8604 31.6339 55.6652 29.8367 54.2484L25.5031 59.7456ZM50.4969 59.7456C55.2911 55.9663 61.5965 51.5078 66.5335 45.9486C71.5905 40.2542 75.5 33.1254 75.5 23.7661H68.5C68.5 30.9408 65.5765 36.4844 61.2995 41.3004C56.9025 46.2515 51.3729 50.1415 46.1633 54.2484L50.4969 59.7456ZM75.5 23.7661C75.5 14.1897 70.0797 5.8452 62.1923 2.23986C54.0843 -1.46633 44.0238 0.0965836 35.4783 8.97503L40.5217 13.8293C47.2757 6.81217 54.2151 6.29008 59.2822 8.60628C64.57 11.0233 68.5 16.8086 68.5 23.7661H75.5ZM46.1633 54.2484C44.3661 55.6652 42.8217 56.8604 41.3504 57.7202C39.878 58.5806 38.8115 58.9 38 58.9V65.9C40.5885 65.9 42.922 64.9094 44.8821 63.764C46.8433 62.6179 48.764 61.1117 50.4969 59.7456L46.1633 54.2484ZM29.8367 54.2484C27.0969 52.0885 24.39 50.089 21.6058 47.7976L17.1575 53.2025C19.9865 55.5308 23.0116 57.7816 25.5031 59.7456L29.8367 54.2484ZM10.4707 35.396C8.63281 32.0355 7.5 28.2393 7.5 23.7661H0.5C0.5 29.5057 1.97415 34.4488 4.32927 38.7549L10.4707 35.396ZM35.5256 13.8775L42.3256 20.675L47.2744 15.7244L40.4744 8.92684L35.5256 13.8775Z" fill="#F31818"/>
</svg>
