<svg width="21" height="21" viewBox="0 0 21 21" fill="none" xmlns="http://www.w3.org/2000/svg">
<path d="M10.5 12.0315C10.866 12.0315 11.1628 12.3282 11.1628 12.6943V16.2292C11.1628 16.5952 10.866 16.8919 10.5 16.8919C10.134 16.8919 9.83721 16.5952 9.83721 16.2292V12.6943C9.83721 12.3282 10.134 12.0315 10.5 12.0315Z" fill="#6B7280"/>
<path fill-rule="evenodd" clip-rule="evenodd" d="M4.53488 8.54323V7.39194C4.53488 4.0975 7.20556 1.42683 10.5 1.42683C13.7944 1.42683 16.4651 4.0975 16.4651 7.39194V8.54323C16.6656 8.55732 16.8545 8.57567 17.0322 8.59957C17.8277 8.70651 18.4974 8.9353 19.0294 9.46723C19.5613 9.99915 19.7901 10.6689 19.897 11.4643C20 12.2305 20 13.2047 20 14.4132V14.5102C20 15.7188 20 16.6929 19.897 17.4591C19.7901 18.2545 19.5613 18.9243 19.0294 19.4562C18.4974 19.9881 17.8277 20.2169 17.0322 20.3239C16.2661 20.4269 15.2919 20.4268 14.0834 20.4268H6.91663C5.70806 20.4268 4.73391 20.4269 3.96776 20.3239C3.17231 20.2169 2.50256 19.9881 1.97064 19.4562C1.43871 18.9243 1.20992 18.2545 1.10298 17.4591C0.999968 16.6929 0.999983 15.7188 1 14.5102V14.4132C0.999983 13.2047 0.999968 12.2305 1.10298 11.4643C1.20992 10.6689 1.43871 9.99915 1.97064 9.46723C2.50256 8.9353 3.17231 8.70651 3.96776 8.59957C4.14549 8.57567 4.33443 8.55732 4.53488 8.54323ZM5.86047 7.39194C5.86047 4.8296 7.93766 2.75241 10.5 2.75241C13.0623 2.75241 15.1395 4.8296 15.1395 7.39194V8.49964C14.8094 8.49658 14.4576 8.49659 14.0834 8.49659H6.91662C6.54235 8.49659 6.19056 8.49658 5.86047 8.49964V7.39194ZM4.14439 9.91333C3.49593 10.0005 3.15254 10.16 2.90796 10.4046C2.66338 10.6491 2.50392 10.9925 2.41674 11.641C2.32699 12.3085 2.32558 13.1932 2.32558 14.4617C2.32558 15.7302 2.32699 16.6149 2.41674 17.2824C2.50392 17.9309 2.66338 18.2743 2.90796 18.5189C3.15254 18.7634 3.49593 18.9229 4.14439 19.0101C4.8119 19.0998 5.69661 19.1012 6.96512 19.1012H14.0349C15.3034 19.1012 16.1881 19.0998 16.8556 19.0101C17.5041 18.9229 17.8475 18.7634 18.092 18.5189C18.3366 18.2743 18.4961 17.9309 18.5833 17.2824C18.673 16.6149 18.6744 15.7302 18.6744 14.4617C18.6744 13.1932 18.673 12.3085 18.5833 11.641C18.4961 10.9925 18.3366 10.6491 18.092 10.4046C17.8475 10.16 17.5041 10.0005 16.8556 9.91333C16.1881 9.82358 15.3034 9.82218 14.0349 9.82218H6.96512C5.69661 9.82218 4.8119 9.82358 4.14439 9.91333Z" fill="#6B7280"/>
<path d="M10.5 12.0315C10.866 12.0315 11.1628 12.3282 11.1628 12.6943V16.2292C11.1628 16.5952 10.866 16.8919 10.5 16.8919C10.134 16.8919 9.83721 16.5952 9.83721 16.2292V12.6943C9.83721 12.3282 10.134 12.0315 10.5 12.0315Z" stroke="#6B7280" stroke-linecap="round"/>
<path fill-rule="evenodd" clip-rule="evenodd" d="M4.53488 8.54323V7.39194C4.53488 4.0975 7.20556 1.42683 10.5 1.42683C13.7944 1.42683 16.4651 4.0975 16.4651 7.39194V8.54323C16.6656 8.55732 16.8545 8.57567 17.0322 8.59957C17.8277 8.70651 18.4974 8.9353 19.0294 9.46723C19.5613 9.99915 19.7901 10.6689 19.897 11.4643C20 12.2305 20 13.2047 20 14.4132V14.5102C20 15.7188 20 16.6929 19.897 17.4591C19.7901 18.2545 19.5613 18.9243 19.0294 19.4562C18.4974 19.9881 17.8277 20.2169 17.0322 20.3239C16.2661 20.4269 15.2919 20.4268 14.0834 20.4268H6.91663C5.70806 20.4268 4.73391 20.4269 3.96776 20.3239C3.17231 20.2169 2.50256 19.9881 1.97064 19.4562C1.43871 18.9243 1.20992 18.2545 1.10298 17.4591C0.999968 16.6929 0.999983 15.7188 1 14.5102V14.4132C0.999983 13.2047 0.999968 12.2305 1.10298 11.4643C1.20992 10.6689 1.43871 9.99915 1.97064 9.46723C2.50256 8.9353 3.17231 8.70651 3.96776 8.59957C4.14549 8.57567 4.33443 8.55732 4.53488 8.54323ZM5.86047 7.39194C5.86047 4.8296 7.93766 2.75241 10.5 2.75241C13.0623 2.75241 15.1395 4.8296 15.1395 7.39194V8.49964C14.8094 8.49658 14.4576 8.49659 14.0834 8.49659H6.91662C6.54235 8.49659 6.19056 8.49658 5.86047 8.49964V7.39194ZM4.14439 9.91333C3.49593 10.0005 3.15254 10.16 2.90796 10.4046C2.66338 10.6491 2.50392 10.9925 2.41674 11.641C2.32699 12.3085 2.32558 13.1932 2.32558 14.4617C2.32558 15.7302 2.32699 16.6149 2.41674 17.2824C2.50392 17.9309 2.66338 18.2743 2.90796 18.5189C3.15254 18.7634 3.49593 18.9229 4.14439 19.0101C4.8119 19.0998 5.69661 19.1012 6.96512 19.1012H14.0349C15.3034 19.1012 16.1881 19.0998 16.8556 19.0101C17.5041 18.9229 17.8475 18.7634 18.092 18.5189C18.3366 18.2743 18.4961 17.9309 18.5833 17.2824C18.673 16.6149 18.6744 15.7302 18.6744 14.4617C18.6744 13.1932 18.673 12.3085 18.5833 11.641C18.4961 10.9925 18.3366 10.6491 18.092 10.4046C17.8475 10.16 17.5041 10.0005 16.8556 9.91333C16.1881 9.82358 15.3034 9.82218 14.0349 9.82218H6.96512C5.69661 9.82218 4.8119 9.82358 4.14439 9.91333Z" stroke="#6B7280" stroke-linecap="round"/>
</svg>
