<svg width="228" height="228" viewBox="0 0 228 228" fill="none" xmlns="http://www.w3.org/2000/svg">
<g filter="url(#filter0_d_86_170)">
<circle cx="97" cy="94" r="74" fill="white"/>
</g>
<path d="M97 20C56.3 20 23 53.3 23 94C23 134.7 56.3 168 97 168C137.7 168 171 134.7 171 94C171 53.3 138.07 20 97 20ZM124.75 128.41C107.36 117.68 85.53 115.46 59.63 121.38C57.04 122.12 54.82 120.27 54.08 118.05C53.34 115.46 55.19 113.24 57.41 112.5C85.53 106.21 109.95 108.8 129.19 120.64C131.78 121.75 132.15 124.71 131.04 126.93C129.56 129.15 126.97 129.89 124.75 128.41V128.41ZM132.15 108.43C112.17 96.22 81.83 92.52 58.52 99.92C55.56 100.66 52.23 99.18 51.49 96.22C50.75 93.26 52.23 89.93 55.19 89.19C82.2 81.05 115.5 85.12 138.44 99.18C140.66 100.29 141.77 103.99 139.92 106.58C138.07 109.17 134.74 110.28 132.15 108.43ZM54.82 77.35C51.12 78.46 47.42 76.24 46.31 72.91C45.2 69.21 47.42 65.51 50.75 64.4C77.02 56.63 120.31 58.11 147.69 74.39C151.02 76.24 152.13 80.68 150.28 84.01C148.43 86.6 143.99 87.71 140.66 85.86C116.98 71.8 77.39 70.32 54.82 77.35Z" fill="#1ED760"/>
<defs>
<filter id="filter0_d_86_170" x="0" y="0" width="228" height="228" filterUnits="userSpaceOnUse" color-interpolation-filters="sRGB">
<feFlood flood-opacity="0" result="BackgroundImageFix"/>
<feColorMatrix in="SourceAlpha" type="matrix" values="0 0 0 0 0 0 0 0 0 0 0 0 0 0 0 0 0 0 127 0" result="hardAlpha"/>
<feOffset dx="17" dy="20"/>
<feGaussianBlur stdDeviation="20"/>
<feComposite in2="hardAlpha" operator="out"/>
<feColorMatrix type="matrix" values="0 0 0 0 0.0862745 0 0 0 0 0.0901961 0 0 0 0 0.137255 0 0 0 0.2 0"/>
<feBlend mode="normal" in2="BackgroundImageFix" result="effect1_dropShadow_86_170"/>
<feBlend mode="normal" in="SourceGraphic" in2="effect1_dropShadow_86_170" result="shape"/>
</filter>
</defs>
</svg>
