<svg xmlns="http://www.w3.org/2000/svg" viewBox="0 0 542.3 558.72"><defs><style>.cls-1{fill:#ed9109;}.cls-2{fill:#ffd424;}.cls-3{fill:#ffea92;}</style></defs><g id="Слой_2" data-name="Слой 2"><g id="Слой_1-2" data-name="Слой 1"><circle class="cls-1" cx="271.15" cy="287.57" r="271.15"/><circle class="cls-2" cx="271.15" cy="271.15" r="271.15"/><path class="cls-3" d="M506,135.58a271.24,271.24,0,0,1-469.74,0,271.23,271.23,0,0,1,469.74,0Z"/><circle class="cls-1" cx="270.98" cy="260.11" r="224.68"/><path class="cls-2" d="M271.06,490.62A219.46,219.46,0,0,1,115.88,116,219.47,219.47,0,0,1,426.25,426.34,218,218,0,0,1,271.06,490.62Z"/><path class="cls-1" d="M271.06,56.68c118.45,0,214.47,96,214.47,214.47s-96,214.47-214.47,214.47S56.59,389.6,56.59,271.15s96-214.47,214.47-214.47m0-10A224.52,224.52,0,0,0,183.69,478,224.52,224.52,0,0,0,358.44,64.33a223,223,0,0,0-87.38-17.65Z"/><path class="cls-1" d="M363.13,424.39v1.68l-11,43-1.61,6.27-.44,1.71a34.35,34.35,0,0,1-2.08,4.69,230.68,230.68,0,0,1-38.13,9.7l.79-5.43.53-3.73,13.49-.51c3.77-.15,6.58-3.51,8.25-6.25a24.28,24.28,0,0,0,1.68-3.28l9.24-36.06a332.14,332.14,0,0,0-72.75-8.13v66.56a233.89,233.89,0,0,1-76.93-12.87,34.35,34.35,0,0,1-2.08-4.69l-.44-1.71L190,469.06l-11-43v-1.68a344.79,344.79,0,0,1,184.14,0Z"/><path class="cls-1" d="M381.39,377.19l-6.58,27.32s-94.36-33.52-202.94,0l-7.81-29.17S264.48,336.32,381.39,377.19Z"/><path class="cls-1" d="M357.85,351.17,330.08,345c43.39-46.63,20.21-90.92,20.21-90.92s0,0-.05.05c-13.43,18.61-44.09,21.2-59.46,21.14a.8.8,0,0,1-.27,0c-2,0-3.7-.07-5.08-.13-.7-.08-1.36-.17-2-.2a.15.15,0,0,0-.14,0c-1.3-.07-2.62-.21-4-.33h-.25c-15.45-1.5-30.21,1.67-43.55,7.25-.39.16-.79.31-1.16.49a128,128,0,0,0-18.2,9.78c-.4.25-.8.53-1.22.82-23.82,15.74-39.87,36.79-41.62,44a.06.06,0,0,0,0,0C155.23,306,162,261,162,261c105.3-53.55,85.26-152.73,85.26-152.73,103.9,68.88,40.54,140.8,40.54,140.8,45.91,7.34,61.2-41.93,61.2-41.93C416.31,281.84,357.85,351.17,357.85,351.17Z"/></g></g></svg>