<svg width="19" height="22" viewBox="0 0 19 22" fill="none" xmlns="http://www.w3.org/2000/svg">
<path fill-rule="evenodd" clip-rule="evenodd" d="M9.45846 0.608337C6.92256 0.608337 4.8668 2.6641 4.8668 5.2C4.8668 7.73591 6.92256 9.79167 9.45846 9.79167C11.9944 9.79167 14.0501 7.73591 14.0501 5.2C14.0501 2.6641 11.9944 0.608337 9.45846 0.608337ZM6.3168 5.2C6.3168 3.46491 7.72337 2.05834 9.45846 2.05834C11.1936 2.05834 12.6001 3.46491 12.6001 5.2C12.6001 6.9351 11.1936 8.34167 9.45846 8.34167C7.72337 8.34167 6.3168 6.9351 6.3168 5.2Z" fill="#6B7280"/>
<path fill-rule="evenodd" clip-rule="evenodd" d="M9.45846 11.2417C7.22203 11.2417 5.16156 11.75 3.63473 12.6089C2.13063 13.4549 1.00013 14.7372 1.00013 16.3167L1.00007 16.4152C0.998974 17.5383 0.997603 18.9479 2.23399 19.9548C2.84248 20.4503 3.69372 20.8026 4.8438 21.0354C5.99708 21.2689 7.50021 21.3917 9.45846 21.3917C11.4167 21.3917 12.9198 21.2689 14.0731 21.0354C15.2232 20.8026 16.0744 20.4503 16.6829 19.9548C17.9193 18.9479 17.918 17.5383 17.9169 16.4152L17.9168 16.3167C17.9168 14.7372 16.7863 13.4549 15.2822 12.6089C13.7554 11.75 11.6949 11.2417 9.45846 11.2417ZM2.45013 16.3167C2.45013 15.4937 3.0508 14.601 4.34561 13.8726C5.6177 13.1571 7.42389 12.6917 9.45846 12.6917C11.493 12.6917 13.2992 13.1571 14.5713 13.8726C15.8661 14.601 16.4668 15.4937 16.4668 16.3167C16.4668 17.5809 16.4278 18.2925 15.7673 18.8304C15.4091 19.1221 14.8104 19.4068 13.7855 19.6142C12.7638 19.821 11.3669 19.9417 9.45846 19.9417C7.55005 19.9417 6.15318 19.821 5.13146 19.6142C4.10654 19.4068 3.50778 19.1221 3.1496 18.8304C2.4891 18.2925 2.45013 17.5809 2.45013 16.3167Z" fill="#6B7280"/>
<path fill-rule="evenodd" clip-rule="evenodd" d="M9.45846 0.608337C6.92256 0.608337 4.8668 2.6641 4.8668 5.2C4.8668 7.73591 6.92256 9.79167 9.45846 9.79167C11.9944 9.79167 14.0501 7.73591 14.0501 5.2C14.0501 2.6641 11.9944 0.608337 9.45846 0.608337ZM6.3168 5.2C6.3168 3.46491 7.72337 2.05834 9.45846 2.05834C11.1936 2.05834 12.6001 3.46491 12.6001 5.2C12.6001 6.9351 11.1936 8.34167 9.45846 8.34167C7.72337 8.34167 6.3168 6.9351 6.3168 5.2Z" stroke="#6B7280"/>
<path fill-rule="evenodd" clip-rule="evenodd" d="M9.45846 11.2417C7.22203 11.2417 5.16156 11.75 3.63473 12.6089C2.13063 13.4549 1.00013 14.7372 1.00013 16.3167L1.00007 16.4152C0.998974 17.5383 0.997603 18.9479 2.23399 19.9548C2.84248 20.4503 3.69372 20.8026 4.8438 21.0354C5.99708 21.2689 7.50021 21.3917 9.45846 21.3917C11.4167 21.3917 12.9198 21.2689 14.0731 21.0354C15.2232 20.8026 16.0744 20.4503 16.6829 19.9548C17.9193 18.9479 17.918 17.5383 17.9169 16.4152L17.9168 16.3167C17.9168 14.7372 16.7863 13.4549 15.2822 12.6089C13.7554 11.75 11.6949 11.2417 9.45846 11.2417ZM2.45013 16.3167C2.45013 15.4937 3.0508 14.601 4.34561 13.8726C5.6177 13.1571 7.42389 12.6917 9.45846 12.6917C11.493 12.6917 13.2992 13.1571 14.5713 13.8726C15.8661 14.601 16.4668 15.4937 16.4668 16.3167C16.4668 17.5809 16.4278 18.2925 15.7673 18.8304C15.4091 19.1221 14.8104 19.4068 13.7855 19.6142C12.7638 19.821 11.3669 19.9417 9.45846 19.9417C7.55005 19.9417 6.15318 19.821 5.13146 19.6142C4.10654 19.4068 3.50778 19.1221 3.1496 18.8304C2.4891 18.2925 2.45013 17.5809 2.45013 16.3167Z" stroke="#6B7280"/>
</svg>
